<svg version="1.1" viewBox="0.0 0.0 960.0 540.0" fill="none" stroke="none" stroke-linecap="square" stroke-miterlimit="10" xmlns:xlink="http://www.w3.org/1999/xlink" xmlns="http://www.w3.org/2000/svg"><clipPath id="g20111129e14_0_52.0"><path d="m0 0l960.0 0l0 540.0l-960.0 0l0 -540.0z" clip-rule="nonzero"/></clipPath><g clip-path="url(#g20111129e14_0_52.0)"><path fill="#ffffff" d="m0 0l960.0 0l0 540.0l-960.0 0z" fill-rule="evenodd"/><path fill="#ff7575" d="m577.77954 163.85579l0 0c0 -4.2444 3.4407349 -7.6851807 7.6851807 -7.6851807l73.54297 0c2.038269 0 3.993042 0.8096771 5.434265 2.2509308c1.4412842 1.4412537 2.2509766 3.3960114 2.2509766 5.43425l0 30.739853c0 4.2444153 -3.440796 7.685196 -7.6852417 7.685196l-73.54297 0c-4.244446 0 -7.6851807 -3.4407806 -7.6851807 -7.685196z" fill-rule="evenodd"/><path stroke="#ff7575" stroke-width="1.0" stroke-linejoin="round" stroke-linecap="butt" d="m577.77954 163.85579l0 0c0 -4.2444 3.4407349 -7.6851807 7.6851807 -7.6851807l73.54297 0c2.038269 0 3.993042 0.8096771 5.434265 2.2509308c1.4412842 1.4412537 2.2509766 3.3960114 2.2509766 5.43425l0 30.739853c0 4.2444153 -3.440796 7.685196 -7.6852417 7.685196l-73.54297 0c-4.244446 0 -7.6851807 -3.4407806 -7.6851807 -7.685196z" fill-rule="evenodd"/><path fill="#ff7575" d="m435.01575 163.85448l0 0c0 -4.2444 3.4407654 -7.6851807 7.6851807 -7.6851807l73.54303 0c2.038208 0 3.992981 0.8096771 5.434265 2.2509308c1.4412231 1.4412537 2.2509155 3.3960114 2.2509155 5.43425l0 30.739853c0 4.2444153 -3.440796 7.685196 -7.6851807 7.685196l-73.54303 0c-4.2444153 0 -7.6851807 -3.4407806 -7.6851807 -7.685196z" fill-rule="evenodd"/><path stroke="#ff7575" stroke-width="1.0" stroke-linejoin="round" stroke-linecap="butt" d="m435.01575 163.85448l0 0c0 -4.2444 3.4407654 -7.6851807 7.6851807 -7.6851807l73.54303 0c2.038208 0 3.992981 0.8096771 5.434265 2.2509308c1.4412231 1.4412537 2.2509155 3.3960114 2.2509155 5.43425l0 30.739853c0 4.2444153 -3.440796 7.685196 -7.6851807 7.685196l-73.54303 0c-4.2444153 0 -7.6851807 -3.4407806 -7.6851807 -7.685196z" fill-rule="evenodd"/><path fill="#ff7575" d="m520.5171 267.344l0 0c0 -4.2444153 3.4407349 -7.685211 7.6851807 -7.685211l62.267395 0c2.038208 0 3.992981 0.8096924 5.434265 2.250946c1.4412231 1.4412537 2.2509155 3.3960266 2.2509155 5.434265l0 30.739838c0 4.2444153 -3.440796 7.685211 -7.6851807 7.685211l-62.267395 0c-4.244446 0 -7.6851807 -3.440796 -7.6851807 -7.685211z" fill-rule="evenodd"/><path stroke="#ff7575" stroke-width="1.0" stroke-linejoin="round" stroke-linecap="butt" d="m520.5171 267.344l0 0c0 -4.2444153 3.4407349 -7.685211 7.6851807 -7.685211l62.267395 0c2.038208 0 3.992981 0.8096924 5.434265 2.250946c1.4412231 1.4412537 2.2509155 3.3960266 2.2509155 5.434265l0 30.739838c0 4.2444153 -3.440796 7.685211 -7.6851807 7.685211l-62.267395 0c-4.244446 0 -7.6851807 -3.440796 -7.6851807 -7.685211z" fill-rule="evenodd"/><path fill="#000000" fill-opacity="0.0" d="m523.9029 261.70602l70.86615 0l0 42.015747l-70.86615 0z" fill-rule="evenodd"/><path fill="#000000" d="m544.851 288.62604l0 -5.703125l-7.28125 0l0 5.703125l-1.546875 0l0 -12.4375l1.546875 0l0 5.34375l7.28125 0l0 -5.34375l1.546875 0l0 12.4375l-1.546875 0zm8.330139 0.21875q-1.953125 0 -3.203125 -1.328125q-1.25 -1.328125 -1.25 -3.40625q0 -2.09375 1.25 -3.40625q1.25 -1.3125 3.203125 -1.3125q1.96875 0 3.21875 1.3125q1.25 1.3125 1.25 3.40625q0 2.078125 -1.25 3.40625q-1.25 1.328125 -3.21875 1.328125zm0 -1.25q1.3125 0 2.15625 -0.96875q0.84375 -0.984375 0.84375 -2.515625q0 -1.515625 -0.84375 -2.484375q-0.84375 -0.984375 -2.15625 -0.984375q-1.296875 0 -2.15625 0.96875q-0.84375 0.96875 -0.84375 2.5q0 1.546875 0.84375 2.515625q0.84375 0.96875 2.15625 0.96875zm17.624512 1.03125l0 -6.125q0 -1.859375 -1.671875 -1.859375q-0.703125 0 -1.375 0.421875q-0.65625 0.421875 -1.0 0.953125l0 6.609375l-1.40625 0l0 -6.125q0 -1.859375 -1.65625 -1.859375q-0.6875 0 -1.34375 0.4375q-0.65625 0.421875 -1.03125 0.96875l0 6.578125l-1.390625 0l0 -9.015625l1.390625 0l0 1.3125q0.3125 -0.546875 1.1875 -1.03125q0.890625 -0.5 1.71875 -0.5q1.046875 0 1.625 0.484375q0.59375 0.484375 0.8125 1.1875q0.453125 -0.71875 1.3125 -1.1875q0.859375 -0.484375 1.703125 -0.484375q2.515625 0 2.515625 2.71875l0 6.515625l-1.390625 0zm8.261719 0.21875q-2.03125 0 -3.3125 -1.3125q-1.28125 -1.328125 -1.28125 -3.421875q0 -2.0 1.265625 -3.359375q1.28125 -1.359375 3.171875 -1.359375q1.9375 0 3.125 1.34375q1.203125 1.34375 1.203125 3.484375l0 0.359375l-7.296875 0q0.078125 1.375 1.0 2.25q0.921875 0.859375 2.25 0.859375q1.640625 0 2.78125 -1.140625l0.671875 0.921875q-1.375 1.375 -3.578125 1.375zm2.796875 -5.296875q0 -1.25 -0.828125 -2.125q-0.8125 -0.875 -2.140625 -0.875q-1.25 0 -2.078125 0.875q-0.828125 0.875 -0.875 2.125l5.921875 0z" fill-rule="nonzero"/><path fill="#ff7575" d="m500.15485 75.160255l0 0c0 -4.2444153 3.440796 -7.6851883 7.685211 -7.6851883l73.543 0c2.038208 0 3.992981 0.80968475 5.434265 2.2509384c1.4412231 1.4412537 2.2509155 3.3960114 2.2509155 5.43425l0 30.739853c0 4.2444153 -3.440796 7.685196 -7.6851807 7.685196l-73.543 0c-4.2444153 0 -7.685211 -3.4407806 -7.685211 -7.685196z" fill-rule="evenodd"/><path stroke="#ff7575" stroke-width="1.0" stroke-linejoin="round" stroke-linecap="butt" d="m500.15485 75.160255l0 0c0 -4.2444153 3.440796 -7.6851883 7.685211 -7.6851883l73.543 0c2.038208 0 3.992981 0.80968475 5.434265 2.2509384c1.4412231 1.4412537 2.2509155 3.3960114 2.2509155 5.43425l0 30.739853c0 4.2444153 -3.440796 7.685196 -7.6851807 7.685196l-73.543 0c-4.2444153 0 -7.685211 -3.4407806 -7.685211 -7.685196z" fill-rule="evenodd"/><path fill="#000000" fill-opacity="0.0" d="m492.15485 69.52231l108.53546 0l0 42.015747l-108.53546 0z" fill-rule="evenodd"/><path fill="#000000" d="m508.97742 96.44231l0 -12.4375l1.546875 0l0 12.4375l-1.546875 0zm10.490112 0l0 -5.890625q0 -1.203125 -0.5625 -1.640625q-0.546875 -0.453125 -1.453125 -0.453125q-0.78125 0 -1.546875 0.421875q-0.75 0.421875 -1.125 0.984375l0 6.578125l-1.390625 0l0 -9.015625l1.390625 0l0 1.3125q0.578125 -0.671875 1.421875 -1.09375q0.859375 -0.4375 1.78125 -0.4375q2.875 0 2.875 2.90625l0 6.328125l-1.390625 0zm6.467102 0.21875q-2.0 0 -2.0 -2.109375l0 -5.890625l-1.484375 0l0 -1.234375l1.484375 0l0 -2.453125l1.40625 0l0 2.453125l1.828125 0l0 1.234375l-1.828125 0l0 5.59375q0 0.515625 0.21875 0.84375q0.234375 0.3125 0.703125 0.3125q0.578125 0 0.9375 -0.375l0.421875 1.046875q-0.578125 0.578125 -1.6875 0.578125zm3.2192993 -0.21875l0 -9.015625l1.390625 0l0 1.453125q1.25 -1.640625 3.0 -1.640625l0 1.4375l-0.546875 -0.046875q-0.640625 0 -1.40625 0.453125q-0.765625 0.453125 -1.046875 0.984375l0 6.375l-1.390625 0zm10.07843 0.21875q-1.953125 0 -3.203125 -1.328125q-1.25 -1.328125 -1.25 -3.40625q0 -2.09375 1.25 -3.40625q1.25 -1.3125 3.203125 -1.3125q1.96875 0 3.21875 1.3125q1.25 1.3125 1.25 3.40625q0 2.078125 -1.25 3.40625q-1.25 1.328125 -3.21875 1.328125zm0 -1.25q1.3125 0 2.15625 -0.96875q0.84375 -0.984375 0.84375 -2.515625q0 -1.515625 -0.84375 -2.484375q-0.84375 -0.984375 -2.15625 -0.984375q-1.296875 0 -2.15625 0.96875q-0.84375 0.96875 -0.84375 2.5q0 1.546875 0.84375 2.515625q0.84375 0.96875 2.15625 0.96875zm13.265137 1.03125l0 -1.34375q-0.5 0.6875 -1.296875 1.125q-0.78125 0.4375 -1.734375 0.4375q-1.8125 0 -2.921875 -1.28125q-1.09375 -1.28125 -1.09375 -3.4375q0 -2.15625 1.109375 -3.4375q1.109375 -1.296875 2.90625 -1.296875q0.90625 0 1.703125 0.421875q0.796875 0.421875 1.328125 1.15625l0 -4.78125l1.40625 0l0 12.4375l-1.40625 0zm-2.703125 -1.03125q0.84375 0 1.59375 -0.40625q0.75 -0.40625 1.109375 -1.0l0 -4.09375q-0.359375 -0.59375 -1.109375 -1.015625q-0.75 -0.4375 -1.59375 -0.4375q-1.296875 0 -2.09375 0.953125q-0.796875 0.953125 -0.796875 2.53125q0 1.546875 0.78125 2.515625q0.796875 0.953125 2.109375 0.953125zm12.992981 1.03125l0 -1.265625q-0.53125 0.59375 -1.375 1.046875q-0.828125 0.4375 -1.84375 0.4375q-2.859375 0 -2.859375 -2.875l0 -6.359375l1.390625 0l0 5.9375q0 1.0625 0.484375 1.5625q0.484375 0.484375 1.53125 0.484375q0.828125 0 1.546875 -0.40625q0.734375 -0.40625 1.125 -0.953125l0 -6.625l1.390625 0l0 9.015625l-1.390625 0zm8.170227 0.21875q-1.984375 0 -3.25 -1.34375q-1.25 -1.34375 -1.25 -3.390625q0 -2.03125 1.25 -3.375q1.265625 -1.34375 3.25 -1.34375q2.09375 0 3.296875 1.5625l-0.921875 0.859375q-0.859375 -1.171875 -2.296875 -1.171875q-1.390625 0 -2.265625 0.96875q-0.859375 0.953125 -0.859375 2.5q0 1.5625 0.859375 2.53125q0.859375 0.953125 2.265625 0.953125q1.40625 0 2.296875 -1.171875l0.921875 0.859375q-1.203125 1.5625 -3.296875 1.5625zm9.328552 0q-2.03125 0 -3.3125 -1.3125q-1.28125 -1.328125 -1.28125 -3.421875q0 -2.0 1.265625 -3.359375q1.28125 -1.359375 3.171875 -1.359375q1.9375 0 3.125 1.34375q1.203125 1.34375 1.203125 3.484375l0 0.359375l-7.296875 0q0.078125 1.375 1.0 2.25q0.921875 0.859375 2.25 0.859375q1.640625 0 2.78125 -1.140625l0.671875 0.921875q-1.375 1.375 -3.578125 1.375zm2.796875 -5.296875q0 -1.25 -0.828125 -2.125q-0.8125 -0.875 -2.140625 -0.875q-1.25 0 -2.078125 0.875q-0.828125 0.875 -0.875 2.125l5.921875 0z" fill-rule="nonzero"/><path fill="#000000" fill-opacity="0.0" d="m601.4619 261.70602l64.12604 0l0 42.015747l-64.12604 0z" fill-rule="evenodd"/><path fill="#434343" d="m613.91504 292.3448q-1.265625 -1.734375 -1.953125 -3.859375q-0.671875 -2.140625 -0.671875 -4.390625q0 -2.265625 0.671875 -4.375q0.6875 -2.125 1.953125 -3.875l0.84375 0.640625q-1.125 2.234375 -1.546875 3.90625q-0.40625 1.671875 -0.40625 3.703125q0 2.015625 0.421875 3.71875q0.421875 1.6875 1.53125 3.875l-0.84375 0.65625zm8.65802 -3.71875l0 -1.265625q-0.53125 0.59375 -1.375 1.046875q-0.828125 0.4375 -1.84375 0.4375q-2.859375 0 -2.859375 -2.875l0 -6.359375l1.390625 0l0 5.9375q0 1.0625 0.484375 1.5625q0.484375 0.484375 1.53125 0.484375q0.828125 0 1.546875 -0.40625q0.734375 -0.40625 1.125 -0.953125l0 -6.625l1.390625 0l0 9.015625l-1.390625 0zm7.045227 0.21875q-2.296875 0 -3.640625 -1.40625l0.734375 -1.015625q0.453125 0.53125 1.234375 0.90625q0.796875 0.375 1.734375 0.375q1.046875 0 1.578125 -0.4375q0.546875 -0.4375 0.546875 -1.109375q0 -0.59375 -0.59375 -0.9375q-0.578125 -0.34375 -2.1875 -0.71875q-1.359375 -0.28125 -2.078125 -0.875q-0.71875 -0.609375 -0.71875 -1.640625q0 -1.140625 0.90625 -1.859375q0.921875 -0.734375 2.453125 -0.734375q2.03125 0 3.34375 1.3125l-0.65625 0.96875q-0.40625 -0.484375 -1.109375 -0.8125q-0.703125 -0.328125 -1.578125 -0.328125q-0.9375 0 -1.46875 0.40625q-0.53125 0.40625 -0.53125 1.015625q0 0.53125 0.59375 0.859375q0.609375 0.3125 2.203125 0.640625q1.359375 0.328125 2.0625 0.96875q0.71875 0.640625 0.71875 1.703125q0 1.25 -0.96875 1.984375q-0.96875 0.734375 -2.578125 0.734375zm9.893921 0q-2.03125 0 -3.3125 -1.3125q-1.28125 -1.328125 -1.28125 -3.421875q0 -2.0 1.265625 -3.359375q1.28125 -1.359375 3.171875 -1.359375q1.9375 0 3.125 1.34375q1.203125 1.34375 1.203125 3.484375l0 0.359375l-7.296875 0q0.078125 1.375 1.0 2.25q0.921875 0.859375 2.25 0.859375q1.640625 0 2.78125 -1.140625l0.671875 0.921875q-1.375 1.375 -3.578125 1.375zm2.796875 -5.296875q0 -1.25 -0.828125 -2.125q-0.8125 -0.875 -2.140625 -0.875q-1.25 0 -2.078125 0.875q-0.828125 0.875 -0.875 2.125l5.921875 0zm3.644104 5.078125l0 -9.015625l1.390625 0l0 1.453125q1.25 -1.640625 3.0 -1.640625l0 1.4375l-0.546875 -0.046875q-0.640625 0 -1.40625 0.453125q-0.765625 0.453125 -1.046875 0.984375l0 6.375l-1.390625 0zm5.062805 3.0625q1.109375 -2.171875 1.53125 -3.921875q0.4375 -1.765625 0.4375 -3.671875q0 -1.90625 -0.421875 -3.625q-0.421875 -1.734375 -1.546875 -3.984375l0.84375 -0.640625q1.28125 1.75 1.96875 3.875q0.6875 2.109375 0.6875 4.375q0 2.25 -0.6875 4.390625q-0.6875 2.125 -1.96875 3.859375l-0.84375 -0.65625z" fill-rule="nonzero"/><path fill="#000000" fill-opacity="0.0" d="m589.06824 69.52231l88.91339 0l0 42.015747l-88.91339 0z" fill-rule="evenodd"/><path fill="#434343" d="m601.52136 100.16106q-1.265625 -1.734375 -1.953125 -3.859375q-0.671875 -2.140625 -0.671875 -4.390625q0 -2.265625 0.671875 -4.375q0.6875 -2.125 1.953125 -3.875l0.84375 0.640625q-1.125 2.234375 -1.546875 3.90625q-0.40625 1.671875 -0.40625 3.703125q0 2.015625 0.421875 3.71875q0.421875 1.6875 1.53125 3.875l-0.84375 0.65625zm2.736145 -7.203125l-0.296875 -8.953125l1.75 0l-0.296875 8.953125l-1.15625 0zm0.578125 3.671875q-0.421875 0 -0.71875 -0.296875q-0.296875 -0.3125 -0.296875 -0.734375q0 -0.421875 0.296875 -0.71875q0.296875 -0.296875 0.71875 -0.296875q0.4375 0 0.734375 0.296875q0.296875 0.296875 0.296875 0.71875q0 0.421875 -0.296875 0.734375q-0.296875 0.296875 -0.734375 0.296875zm9.634705 -0.1875l0 -1.265625q-0.53125 0.59375 -1.375 1.046875q-0.828125 0.4375 -1.84375 0.4375q-2.859375 0 -2.859375 -2.875l0 -6.359375l1.390625 0l0 5.9375q0 1.0625 0.484375 1.5625q0.484375 0.484375 1.53125 0.484375q0.828125 0 1.546875 -0.40625q0.734375 -0.40625 1.125 -0.953125l0 -6.625l1.390625 0l0 9.015625l-1.390625 0zm7.045227 0.21875q-2.296875 0 -3.640625 -1.40625l0.734375 -1.015625q0.453125 0.53125 1.234375 0.90625q0.796875 0.375 1.734375 0.375q1.046875 0 1.578125 -0.4375q0.546875 -0.4375 0.546875 -1.109375q0 -0.59375 -0.59375 -0.9375q-0.578125 -0.34375 -2.1875 -0.71875q-1.359375 -0.28125 -2.078125 -0.875q-0.71875 -0.609375 -0.71875 -1.640625q0 -1.140625 0.90625 -1.859375q0.921875 -0.734375 2.453125 -0.734375q2.03125 0 3.34375 1.3125l-0.65625 0.96875q-0.40625 -0.484375 -1.109375 -0.8125q-0.703125 -0.328125 -1.578125 -0.328125q-0.9375 0 -1.46875 0.40625q-0.53125 0.40625 -0.53125 1.015625q0 0.53125 0.59375 0.859375q0.609375 0.3125 2.203125 0.640625q1.359375 0.328125 2.0625 0.96875q0.71875 0.640625 0.71875 1.703125q0 1.25 -0.96875 1.984375q-0.96875 0.734375 -2.578125 0.734375zm9.89386 0q-2.03125 0 -3.3125 -1.3125q-1.28125 -1.328125 -1.28125 -3.421875q0 -2.0 1.265625 -3.359375q1.28125 -1.359375 3.171875 -1.359375q1.9375 0 3.125 1.34375q1.203125 1.34375 1.203125 3.484375l0 0.359375l-7.296875 0q0.078125 1.375 1.0 2.25q0.921875 0.859375 2.25 0.859375q1.640625 0 2.78125 -1.140625l0.671875 0.921875q-1.375 1.375 -3.578125 1.375zm2.796875 -5.296875q0 -1.25 -0.828125 -2.125q-0.8125 -0.875 -2.140625 -0.875q-1.25 0 -2.078125 0.875q-0.828125 0.875 -0.875 2.125l5.921875 0zm3.644104 5.078125l0 -9.015625l1.390625 0l0 1.453125q1.25 -1.640625 3.0 -1.640625l0 1.4375l-0.546875 -0.046875q-0.640625 0 -1.40625 0.453125q-0.765625 0.453125 -1.046875 0.984375l0 6.375l-1.390625 0zm5.062805 3.0625q1.109375 -2.171875 1.53125 -3.921875q0.4375 -1.765625 0.4375 -3.671875q0 -1.90625 -0.421875 -3.625q-0.421875 -1.734375 -1.546875 -3.984375l0.84375 -0.640625q1.28125 1.75 1.96875 3.875q0.6875 2.109375 0.6875 4.375q0 2.25 -0.6875 4.390625q-0.6875 2.125 -1.96875 3.859375l-0.84375 -0.65625z" fill-rule="nonzero"/><path fill="#000000" fill-opacity="0.0" d="m544.6063 113.58662l-65.13388 42.58268" fill-rule="evenodd"/><path stroke="#666666" stroke-width="1.0" stroke-linejoin="round" stroke-linecap="butt" d="m544.6063 113.58662l-60.111908 39.29943" fill-rule="evenodd"/><path fill="#666666" stroke="#666666" stroke-width="1.0" stroke-linecap="butt" d="m483.5906 151.50356l-2.8945618 3.8657684l4.7022095 -1.100769z" fill-rule="evenodd"/><path fill="#000000" fill-opacity="0.0" d="m544.59845 113.58793l77.63776 42.58268" fill-rule="evenodd"/><path stroke="#666666" stroke-width="1.0" stroke-linejoin="round" stroke-linecap="butt" d="m544.59845 113.58793l72.37714 39.697304" fill-rule="evenodd"/><path fill="#666666" stroke="#666666" stroke-width="1.0" stroke-linecap="butt" d="m616.1812 154.73344l4.7732544 0.7341461l-3.1846313 -3.6305542z" fill-rule="evenodd"/><path fill="#000000" fill-opacity="0.0" d="m444.03937 158.21654l70.86615 0l0 42.015747l-70.86615 0z" fill-rule="evenodd"/><path fill="#000000" d="m458.43555 185.13654l0 -12.4375l1.546875 0l0 11.0625l5.78125 0l0 1.375l-7.328125 0zm12.997711 0.21875q-1.953125 0 -3.203125 -1.328125q-1.25 -1.328125 -1.25 -3.40625q0 -2.09375 1.25 -3.40625q1.25 -1.3125 3.203125 -1.3125q1.96875 0 3.21875 1.3125q1.25 1.3125 1.25 3.40625q0 2.078125 -1.25 3.40625q-1.25 1.328125 -3.21875 1.328125zm0 -1.25q1.3125 0 2.15625 -0.96875q0.84375 -0.984375 0.84375 -2.515625q0 -1.515625 -0.84375 -2.484375q-0.84375 -0.984375 -2.15625 -0.984375q-1.296875 0 -2.15625 0.96875q-0.84375 0.96875 -0.84375 2.5q0 1.546875 0.84375 2.515625q0.84375 0.96875 2.15625 0.96875zm10.358856 4.6875q-1.15625 0 -2.0 -0.28125q-0.828125 -0.28125 -1.640625 -1.0625l0.71875 -1.046875q0.5625 0.671875 1.25 0.953125q0.703125 0.28125 1.671875 0.28125q1.390625 0 2.140625 -0.71875q0.75 -0.71875 0.75 -1.984375l0 -1.296875q-0.484375 0.703125 -1.28125 1.15625q-0.78125 0.453125 -1.734375 0.453125q-1.828125 0 -2.921875 -1.28125q-1.09375 -1.296875 -1.09375 -3.375q0 -2.171875 1.109375 -3.421875q1.109375 -1.265625 2.90625 -1.265625q1.859375 0 3.015625 1.578125l0 -1.359375l1.40625 0l0 8.75q0 1.90625 -1.125 2.90625q-1.109375 1.015625 -3.171875 1.015625zm0.203125 -4.78125q0.765625 0 1.515625 -0.40625q0.765625 -0.40625 1.171875 -1.0625l0 -3.9375q-0.40625 -0.65625 -1.171875 -1.046875q-0.765625 -0.40625 -1.515625 -0.40625q-1.3125 0 -2.109375 0.953125q-0.78125 0.953125 -0.78125 2.484375q0 1.546875 0.796875 2.484375q0.8125 0.9375 2.09375 0.9375zm7.5837097 -9.171875q-0.375 0 -0.65625 -0.265625q-0.28125 -0.28125 -0.28125 -0.671875q0 -0.390625 0.28125 -0.671875q0.28125 -0.28125 0.65625 -0.28125q0.390625 0 0.671875 0.28125q0.28125 0.28125 0.28125 0.671875q0 0.390625 -0.28125 0.671875q-0.28125 0.265625 -0.671875 0.265625zm-0.6875 10.296875l0 -9.015625l1.390625 0l0 9.015625l-1.390625 0zm10.275787 0l0 -5.890625q0 -1.203125 -0.5625 -1.640625q-0.546875 -0.453125 -1.453125 -0.453125q-0.78125 0 -1.546875 0.421875q-0.75 0.421875 -1.125 0.984375l0 6.578125l-1.390625 0l0 -9.015625l1.390625 0l0 1.3125q0.578125 -0.671875 1.421875 -1.09375q0.859375 -0.4375 1.78125 -0.4375q2.875 0 2.875 2.90625l0 6.328125l-1.390625 0z" fill-rule="nonzero"/><path fill="#000000" fill-opacity="0.0" d="m573.43304 158.21785l97.60632 0l0 42.015747l-97.60632 0z" fill-rule="evenodd"/><path fill="#000000" d="m597.386 185.13785l-3.171875 -4.9375l-2.484375 0l0 4.9375l-1.546875 0l0 -12.4375l5.0 0q1.75 0 2.828125 1.046875q1.078125 1.03125 1.078125 2.703125q0 1.5625 -0.90625 2.53125q-0.90625 0.953125 -2.328125 1.078125l3.359375 5.078125l-1.828125 0zm-2.390625 -6.3125q1.125 0 1.796875 -0.65625q0.6875 -0.65625 0.6875 -1.71875q0 -1.0625 -0.6875 -1.71875q-0.671875 -0.65625 -1.796875 -0.65625l-3.265625 0l0 4.75l3.265625 0zm9.986145 6.53125q-2.03125 0 -3.3125 -1.3125q-1.28125 -1.328125 -1.28125 -3.421875q0 -2.0 1.265625 -3.359375q1.28125 -1.359375 3.171875 -1.359375q1.9375 0 3.125 1.34375q1.203125 1.34375 1.203125 3.484375l0 0.359375l-7.296875 0q0.078125 1.375 1.0 2.25q0.921875 0.859375 2.25 0.859375q1.640625 0 2.78125 -1.140625l0.671875 0.921875q-1.375 1.375 -3.578125 1.375zm2.796875 -5.296875q0 -1.25 -0.828125 -2.125q-0.8125 -0.875 -2.140625 -0.875q-1.25 0 -2.078125 0.875q-0.828125 0.875 -0.875 2.125l5.921875 0zm7.253479 8.734375q-1.15625 0 -2.0 -0.28125q-0.828125 -0.28125 -1.640625 -1.0625l0.71875 -1.046875q0.5625 0.671875 1.25 0.953125q0.703125 0.28125 1.671875 0.28125q1.390625 0 2.140625 -0.71875q0.75 -0.71875 0.75 -1.984375l0 -1.296875q-0.484375 0.703125 -1.28125 1.15625q-0.78125 0.453125 -1.734375 0.453125q-1.828125 0 -2.921875 -1.28125q-1.09375 -1.296875 -1.09375 -3.375q0 -2.171875 1.109375 -3.421875q1.109375 -1.265625 2.90625 -1.265625q1.859375 0 3.015625 1.578125l0 -1.359375l1.40625 0l0 8.75q0 1.90625 -1.125 2.90625q-1.109375 1.015625 -3.171875 1.015625zm0.203125 -4.78125q0.765625 0 1.515625 -0.40625q0.765625 -0.40625 1.171875 -1.0625l0 -3.9375q-0.40625 -0.65625 -1.171875 -1.046875q-0.765625 -0.40625 -1.515625 -0.40625q-1.3125 0 -2.109375 0.953125q-0.78125 0.953125 -0.78125 2.484375q0 1.546875 0.796875 2.484375q0.8125 0.9375 2.09375 0.9375zm7.583679 -9.171875q-0.375 0 -0.65625 -0.265625q-0.28125 -0.28125 -0.28125 -0.671875q0 -0.390625 0.28125 -0.671875q0.28125 -0.28125 0.65625 -0.28125q0.390625 0 0.671875 0.28125q0.28125 0.28125 0.28125 0.671875q0 0.390625 -0.28125 0.671875q-0.28125 0.265625 -0.671875 0.265625zm-0.6875 10.296875l0 -9.015625l1.390625 0l0 9.015625l-1.390625 0zm7.041382 0.21875q-2.296875 0 -3.640625 -1.40625l0.734375 -1.015625q0.453125 0.53125 1.234375 0.90625q0.796875 0.375 1.734375 0.375q1.046875 0 1.578125 -0.4375q0.546875 -0.4375 0.546875 -1.109375q0 -0.59375 -0.59375 -0.9375q-0.578125 -0.34375 -2.1875 -0.71875q-1.359375 -0.28125 -2.078125 -0.875q-0.71875 -0.609375 -0.71875 -1.640625q0 -1.140625 0.90625 -1.859375q0.921875 -0.734375 2.453125 -0.734375q2.03125 0 3.34375 1.3125l-0.65625 0.96875q-0.40625 -0.484375 -1.109375 -0.8125q-0.703125 -0.328125 -1.578125 -0.328125q-0.9375 0 -1.46875 0.40625q-0.53125 0.40625 -0.53125 1.015625q0 0.53125 0.59375 0.859375q0.609375 0.3125 2.203125 0.640625q1.359375 0.328125 2.0625 0.96875q0.71875 0.640625 0.71875 1.703125q0 1.25 -0.96875 1.984375q-0.96875 0.734375 -2.578125 0.734375zm8.097046 0q-2.0 0 -2.0 -2.109375l0 -5.890625l-1.484375 0l0 -1.234375l1.484375 0l0 -2.453125l1.40625 0l0 2.453125l1.828125 0l0 1.234375l-1.828125 0l0 5.59375q0 0.515625 0.21875 0.84375q0.234375 0.3125 0.703125 0.3125q0.578125 0 0.9375 -0.375l0.421875 1.046875q-0.578125 0.578125 -1.6875 0.578125zm7.2817993 0q-2.03125 0 -3.3125 -1.3125q-1.28125 -1.328125 -1.28125 -3.421875q0 -2.0 1.265625 -3.359375q1.28125 -1.359375 3.171875 -1.359375q1.9375 0 3.125 1.34375q1.203125 1.34375 1.203125 3.484375l0 0.359375l-7.296875 0q0.078125 1.375 1.0 2.25q0.921875 0.859375 2.25 0.859375q1.640625 0 2.78125 -1.140625l0.671875 0.921875q-1.375 1.375 -3.578125 1.375zm2.796875 -5.296875q0 -1.25 -0.828125 -2.125q-0.8125 -0.875 -2.140625 -0.875q-1.25 0 -2.078125 0.875q-0.828125 0.875 -0.875 2.125l5.921875 0zm3.644104 5.078125l0 -9.015625l1.390625 0l0 1.453125q1.25 -1.640625 3.0 -1.640625l0 1.4375l-0.546875 -0.046875q-0.640625 0 -1.40625 0.453125q-0.765625 0.453125 -1.046875 0.984375l0 6.375l-1.390625 0z" fill-rule="nonzero"/><path fill="#000000" fill-opacity="0.0" d="m524.8914 167.97507l49.51178 0" fill-rule="evenodd"/><path stroke="#666666" stroke-width="1.0" stroke-linejoin="round" stroke-linecap="butt" d="m524.8914 167.97507l43.51178 0" fill-rule="evenodd"/><path fill="#666666" stroke="#666666" stroke-width="1.0" stroke-linecap="butt" d="m568.4032 169.6268l4.538086 -1.6517334l-4.538086 -1.6517334z" fill-rule="evenodd"/><path fill="#000000" fill-opacity="0.0" d="m575.52856 187.7546l-49.51184 0" fill-rule="evenodd"/><path stroke="#666666" stroke-width="1.0" stroke-linejoin="round" stroke-linecap="butt" d="m575.52856 187.7546l-43.51184 0" fill-rule="evenodd"/><path fill="#666666" stroke="#666666" stroke-width="1.0" stroke-linecap="butt" d="m532.0167 186.10286l-4.538086 1.6517334l4.538086 1.6517334z" fill-rule="evenodd"/><path fill="#000000" fill-opacity="0.0" d="m465.67715 69.52493l59.62204 0l0 42.015747l-59.62204 0z" fill-rule="evenodd"/><path fill="#000000" d="m475.67715 86.616806q0 -0.859375 0.421875 -1.59375q0.4375 -0.734375 1.09375 -1.203125l0.6875 0.546875q-0.4375 0.3125 -0.796875 0.8125q-0.359375 0.484375 -0.390625 0.9375l0.234375 -0.03125q0.40625 0 0.65625 0.265625q0.25 0.265625 0.25 0.6875q0 0.40625 -0.28125 0.703125q-0.28125 0.296875 -0.703125 0.296875q-0.46875 0 -0.828125 -0.359375q-0.34375 -0.375 -0.34375 -1.0625zm3.0 0q0 -0.859375 0.421875 -1.59375q0.421875 -0.734375 1.078125 -1.203125l0.6875 0.546875q-0.4375 0.3125 -0.78125 0.8125q-0.34375 0.484375 -0.40625 0.9375l0.25 -0.03125q0.390625 0 0.640625 0.265625q0.265625 0.265625 0.265625 0.6875q0 0.40625 -0.296875 0.703125q-0.28125 0.296875 -0.703125 0.296875q-0.46875 0 -0.8125 -0.359375q-0.34375 -0.375 -0.34375 -1.0625zm3.27594 10.203125l4.421875 -13.1875l1.09375 0l-4.421875 13.1875l-1.09375 0zm11.787872 -11.59375q0 0.859375 -0.4375 1.609375q-0.4375 0.75 -1.078125 1.21875l-0.6875 -0.578125q0.453125 -0.296875 0.796875 -0.796875q0.34375 -0.5 0.40625 -0.9375l-0.25 0.03125q-0.390625 0 -0.65625 -0.25q-0.25 -0.265625 -0.25 -0.703125q0 -0.40625 0.28125 -0.703125q0.296875 -0.296875 0.703125 -0.296875q0.46875 0 0.8125 0.359375q0.359375 0.359375 0.359375 1.046875zm-2.984375 0q0 0.859375 -0.4375 1.609375q-0.4375 0.75 -1.09375 1.21875l-0.6875 -0.578125q0.453125 -0.296875 0.796875 -0.796875q0.359375 -0.5 0.421875 -0.9375l-0.265625 0.03125q-0.390625 0 -0.640625 -0.25q-0.25 -0.265625 -0.25 -0.703125q0 -0.40625 0.265625 -0.703125q0.28125 -0.296875 0.71875 -0.296875q0.46875 0 0.8125 0.359375q0.359375 0.359375 0.359375 1.046875z" fill-rule="nonzero"/><path fill="#000000" fill-opacity="0.0" d="m482.22833 261.9265l59.62207 0l0 42.015747l-59.62207 0z" fill-rule="evenodd"/><path fill="#000000" d="m492.22833 279.01837q0 -0.859375 0.421875 -1.59375q0.4375 -0.734375 1.09375 -1.203125l0.6875 0.546875q-0.4375 0.3125 -0.796875 0.8125q-0.359375 0.484375 -0.390625 0.9375l0.234375 -0.03125q0.40625 0 0.65625 0.265625q0.25 0.265625 0.25 0.6875q0 0.40625 -0.28125 0.703125q-0.28125 0.296875 -0.703125 0.296875q-0.46875 0 -0.828125 -0.359375q-0.34375 -0.375 -0.34375 -1.0625zm3.0 0q0 -0.859375 0.421875 -1.59375q0.421875 -0.734375 1.078125 -1.203125l0.6875 0.546875q-0.4375 0.3125 -0.78125 0.8125q-0.34375 0.484375 -0.40625 0.9375l0.25 -0.03125q0.390625 0 0.640625 0.265625q0.265625 0.265625 0.265625 0.6875q0 0.40625 -0.296875 0.703125q-0.28125 0.296875 -0.703125 0.296875q-0.46875 0 -0.8125 -0.359375q-0.34375 -0.375 -0.34375 -1.0625zm3.27594 10.203125l4.421875 -13.1875l1.09375 0l-4.421875 13.1875l-1.09375 0zm11.787872 -11.59375q0 0.859375 -0.4375 1.609375q-0.4375 0.75 -1.078125 1.21875l-0.6875 -0.578125q0.453125 -0.296875 0.796875 -0.796875q0.34375 -0.5 0.40625 -0.9375l-0.25 0.03125q-0.390625 0 -0.65625 -0.25q-0.25 -0.265625 -0.25 -0.703125q0 -0.40625 0.28125 -0.703125q0.296875 -0.296875 0.703125 -0.296875q0.46875 0 0.8125 0.359375q0.359375 0.359375 0.359375 1.046875zm-2.984375 0q0 0.859375 -0.4375 1.609375q-0.4375 0.75 -1.09375 1.21875l-0.6875 -0.578125q0.453125 -0.296875 0.796875 -0.796875q0.359375 -0.5 0.421875 -0.9375l-0.265625 0.03125q-0.390625 0 -0.640625 -0.25q-0.25 -0.265625 -0.25 -0.703125q0 -0.40625 0.265625 -0.703125q0.28125 -0.296875 0.71875 -0.296875q0.46875 0 0.8125 0.359375q0.359375 0.359375 0.359375 1.046875z" fill-rule="nonzero"/><path fill="#000000" fill-opacity="0.0" d="m363.56955 158.21785l97.60629 0l0 42.015747l-97.60629 0z" fill-rule="evenodd"/><path fill="#000000" d="m373.56955 175.30972q0 -0.859375 0.421875 -1.59375q0.4375 -0.734375 1.09375 -1.203125l0.6875 0.546875q-0.4375 0.3125 -0.796875 0.8125q-0.359375 0.484375 -0.390625 0.9375l0.234375 -0.03125q0.40625 0 0.65625 0.265625q0.25 0.265625 0.25 0.6875q0 0.40625 -0.28125 0.703125q-0.28125 0.296875 -0.703125 0.296875q-0.46875 0 -0.828125 -0.359375q-0.34375 -0.375 -0.34375 -1.0625zm3.0 0q0 -0.859375 0.421875 -1.59375q0.421875 -0.734375 1.078125 -1.203125l0.6875 0.546875q-0.4375 0.3125 -0.78125 0.8125q-0.34375 0.484375 -0.40625 0.9375l0.25 -0.03125q0.390625 0 0.640625 0.265625q0.265625 0.265625 0.265625 0.6875q0 0.40625 -0.296875 0.703125q-0.28125 0.296875 -0.703125 0.296875q-0.46875 0 -0.8125 -0.359375q-0.34375 -0.375 -0.34375 -1.0625zm3.27594 10.203125l4.421875 -13.1875l1.09375 0l-4.421875 13.1875l-1.09375 0zm6.9284973 -0.375l0 -12.4375l1.390625 0l0 12.4375l-1.390625 0zm8.119537 0.21875q-1.953125 0 -3.203125 -1.328125q-1.25 -1.328125 -1.25 -3.40625q0 -2.09375 1.25 -3.40625q1.25 -1.3125 3.203125 -1.3125q1.96875 0 3.21875 1.3125q1.25 1.3125 1.25 3.40625q0 2.078125 -1.25 3.40625q-1.25 1.328125 -3.21875 1.328125zm0 -1.25q1.3125 0 2.15625 -0.96875q0.84375 -0.984375 0.84375 -2.515625q0 -1.515625 -0.84375 -2.484375q-0.84375 -0.984375 -2.15625 -0.984375q-1.296875 0 -2.15625 0.96875q-0.84375 0.96875 -0.84375 2.5q0 1.546875 0.84375 2.515625q0.84375 0.96875 2.15625 0.96875zm10.358887 4.6875q-1.15625 0 -2.0 -0.28125q-0.828125 -0.28125 -1.640625 -1.0625l0.71875 -1.046875q0.5625 0.671875 1.25 0.953125q0.703125 0.28125 1.671875 0.28125q1.390625 0 2.140625 -0.71875q0.75 -0.71875 0.75 -1.984375l0 -1.296875q-0.484375 0.703125 -1.28125 1.15625q-0.78125 0.453125 -1.734375 0.453125q-1.828125 0 -2.921875 -1.28125q-1.09375 -1.296875 -1.09375 -3.375q0 -2.171875 1.109375 -3.421875q1.109375 -1.265625 2.90625 -1.265625q1.859375 0 3.015625 1.578125l0 -1.359375l1.40625 0l0 8.75q0 1.90625 -1.125 2.90625q-1.109375 1.015625 -3.171875 1.015625zm0.203125 -4.78125q0.765625 0 1.515625 -0.40625q0.765625 -0.40625 1.171875 -1.0625l0 -3.9375q-0.40625 -0.65625 -1.171875 -1.046875q-0.765625 -0.40625 -1.515625 -0.40625q-1.3125 0 -2.109375 0.953125q-0.78125 0.953125 -0.78125 2.484375q0 1.546875 0.796875 2.484375q0.8125 0.9375 2.09375 0.9375zm7.583679 -9.171875q-0.375 0 -0.65625 -0.265625q-0.28125 -0.28125 -0.28125 -0.671875q0 -0.390625 0.28125 -0.671875q0.28125 -0.28125 0.65625 -0.28125q0.390625 0 0.671875 0.28125q0.28125 0.28125 0.28125 0.671875q0 0.390625 -0.28125 0.671875q-0.28125 0.265625 -0.671875 0.265625zm-0.6875 10.296875l0 -9.015625l1.390625 0l0 9.015625l-1.390625 0zm10.275787 0l0 -5.890625q0 -1.203125 -0.5625 -1.640625q-0.546875 -0.453125 -1.453125 -0.453125q-0.78125 0 -1.546875 0.421875q-0.75 0.421875 -1.125 0.984375l0 6.578125l-1.390625 0l0 -9.015625l1.390625 0l0 1.3125q0.578125 -0.671875 1.421875 -1.09375q0.859375 -0.4375 1.78125 -0.4375q2.875 0 2.875 2.90625l0 6.328125l-1.390625 0zm8.948853 -11.21875q0 0.859375 -0.4375 1.609375q-0.4375 0.75 -1.078125 1.21875l-0.6875 -0.578125q0.453125 -0.296875 0.796875 -0.796875q0.34375 -0.5 0.40625 -0.9375l-0.25 0.03125q-0.390625 0 -0.65625 -0.25q-0.25 -0.265625 -0.25 -0.703125q0 -0.40625 0.28125 -0.703125q0.296875 -0.296875 0.703125 -0.296875q0.46875 0 0.8125 0.359375q0.359375 0.359375 0.359375 1.046875zm-2.984375 0q0 0.859375 -0.4375 1.609375q-0.4375 0.75 -1.09375 1.21875l-0.6875 -0.578125q0.453125 -0.296875 0.796875 -0.796875q0.359375 -0.5 0.421875 -0.9375l-0.265625 0.03125q-0.390625 0 -0.640625 -0.25q-0.25 -0.265625 -0.25 -0.703125q0 -0.40625 0.265625 -0.703125q0.28125 -0.296875 0.71875 -0.296875q0.46875 0 0.8125 0.359375q0.359375 0.359375 0.359375 1.046875z" fill-rule="nonzero"/><path fill="#000000" fill-opacity="0.0" d="m665.58795 158.21785l120.944885 0l0 42.015747l-120.944885 0z" fill-rule="evenodd"/><path fill="#000000" d="m675.58795 175.30972q0 -0.859375 0.421875 -1.59375q0.4375 -0.734375 1.09375 -1.203125l0.6875 0.546875q-0.4375 0.3125 -0.796875 0.8125q-0.359375 0.484375 -0.390625 0.9375l0.234375 -0.03125q0.40625 0 0.65625 0.265625q0.25 0.265625 0.25 0.6875q0 0.40625 -0.28125 0.703125q-0.28125 0.296875 -0.703125 0.296875q-0.46875 0 -0.828125 -0.359375q-0.34375 -0.375 -0.34375 -1.0625zm3.0 0q0 -0.859375 0.421875 -1.59375q0.421875 -0.734375 1.078125 -1.203125l0.6875 0.546875q-0.4375 0.3125 -0.78125 0.8125q-0.34375 0.484375 -0.40625 0.9375l0.25 -0.03125q0.390625 0 0.640625 0.265625q0.265625 0.265625 0.265625 0.6875q0 0.40625 -0.296875 0.703125q-0.28125 0.296875 -0.703125 0.296875q-0.46875 0 -0.8125 -0.359375q-0.34375 -0.375 -0.34375 -1.0625zm3.27594 10.203125l4.421875 -13.1875l1.09375 0l-4.421875 13.1875l-1.09375 0zm6.928467 -0.375l0 -9.015625l1.390625 0l0 1.453125q1.25 -1.640625 3.0 -1.640625l0 1.4375l-0.546875 -0.046875q-0.640625 0 -1.40625 0.453125q-0.765625 0.453125 -1.046875 0.984375l0 6.375l-1.390625 0zm10.219055 0.21875q-2.03125 0 -3.3125 -1.3125q-1.28125 -1.328125 -1.28125 -3.421875q0 -2.0 1.265625 -3.359375q1.28125 -1.359375 3.171875 -1.359375q1.9375 0 3.125 1.34375q1.203125 1.34375 1.203125 3.484375l0 0.359375l-7.296875 0q0.078125 1.375 1.0 2.25q0.921875 0.859375 2.25 0.859375q1.640625 0 2.78125 -1.140625l0.671875 0.921875q-1.375 1.375 -3.578125 1.375zm2.796875 -5.296875q0 -1.25 -0.828125 -2.125q-0.8125 -0.875 -2.140625 -0.875q-1.25 0 -2.078125 0.875q-0.828125 0.875 -0.875 2.125l5.921875 0zm7.253479 8.734375q-1.15625 0 -2.0 -0.28125q-0.828125 -0.28125 -1.640625 -1.0625l0.71875 -1.046875q0.5625 0.671875 1.25 0.953125q0.703125 0.28125 1.671875 0.28125q1.390625 0 2.140625 -0.71875q0.75 -0.71875 0.75 -1.984375l0 -1.296875q-0.484375 0.703125 -1.28125 1.15625q-0.78125 0.453125 -1.734375 0.453125q-1.828125 0 -2.921875 -1.28125q-1.09375 -1.296875 -1.09375 -3.375q0 -2.171875 1.109375 -3.421875q1.109375 -1.265625 2.90625 -1.265625q1.859375 0 3.015625 1.578125l0 -1.359375l1.40625 0l0 8.75q0 1.90625 -1.125 2.90625q-1.109375 1.015625 -3.171875 1.015625zm0.203125 -4.78125q0.765625 0 1.515625 -0.40625q0.765625 -0.40625 1.171875 -1.0625l0 -3.9375q-0.40625 -0.65625 -1.171875 -1.046875q-0.765625 -0.40625 -1.515625 -0.40625q-1.3125 0 -2.109375 0.953125q-0.78125 0.953125 -0.78125 2.484375q0 1.546875 0.796875 2.484375q0.8125 0.9375 2.09375 0.9375zm7.583679 -9.171875q-0.375 0 -0.65625 -0.265625q-0.28125 -0.28125 -0.28125 -0.671875q0 -0.390625 0.28125 -0.671875q0.28125 -0.28125 0.65625 -0.28125q0.390625 0 0.671875 0.28125q0.28125 0.28125 0.28125 0.671875q0 0.390625 -0.28125 0.671875q-0.28125 0.265625 -0.671875 0.265625zm-0.6875 10.296875l0 -9.015625l1.390625 0l0 9.015625l-1.390625 0zm7.041443 0.21875q-2.296875 0 -3.640625 -1.40625l0.734375 -1.015625q0.453125 0.53125 1.234375 0.90625q0.796875 0.375 1.734375 0.375q1.046875 0 1.578125 -0.4375q0.546875 -0.4375 0.546875 -1.109375q0 -0.59375 -0.59375 -0.9375q-0.578125 -0.34375 -2.1875 -0.71875q-1.359375 -0.28125 -2.078125 -0.875q-0.71875 -0.609375 -0.71875 -1.640625q0 -1.140625 0.90625 -1.859375q0.921875 -0.734375 2.453125 -0.734375q2.03125 0 3.34375 1.3125l-0.65625 0.96875q-0.40625 -0.484375 -1.109375 -0.8125q-0.703125 -0.328125 -1.578125 -0.328125q-0.9375 0 -1.46875 0.40625q-0.53125 0.40625 -0.53125 1.015625q0 0.53125 0.59375 0.859375q0.609375 0.3125 2.203125 0.640625q1.359375 0.328125 2.0625 0.96875q0.71875 0.640625 0.71875 1.703125q0 1.25 -0.96875 1.984375q-0.96875 0.734375 -2.578125 0.734375zm8.097046 0q-2.0 0 -2.0 -2.109375l0 -5.890625l-1.484375 0l0 -1.234375l1.484375 0l0 -2.453125l1.40625 0l0 2.453125l1.828125 0l0 1.234375l-1.828125 0l0 5.59375q0 0.515625 0.21875 0.84375q0.234375 0.3125 0.703125 0.3125q0.578125 0 0.9375 -0.375l0.421875 1.046875q-0.578125 0.578125 -1.6875 0.578125zm7.2817993 0q-2.03125 0 -3.3125 -1.3125q-1.28125 -1.328125 -1.28125 -3.421875q0 -2.0 1.265625 -3.359375q1.28125 -1.359375 3.171875 -1.359375q1.9375 0 3.125 1.34375q1.203125 1.34375 1.203125 3.484375l0 0.359375l-7.296875 0q0.078125 1.375 1.0 2.25q0.921875 0.859375 2.25 0.859375q1.640625 0 2.78125 -1.140625l0.671875 0.921875q-1.375 1.375 -3.578125 1.375zm2.796875 -5.296875q0 -1.25 -0.828125 -2.125q-0.8125 -0.875 -2.140625 -0.875q-1.25 0 -2.078125 0.875q-0.828125 0.875 -0.875 2.125l5.921875 0zm3.644104 5.078125l0 -9.015625l1.390625 0l0 1.453125q1.25 -1.640625 3.0 -1.640625l0 1.4375l-0.546875 -0.046875q-0.640625 0 -1.40625 0.453125q-0.765625 0.453125 -1.046875 0.984375l0 6.375l-1.390625 0zm11.01593 -11.21875q0 0.859375 -0.4375 1.609375q-0.4375 0.75 -1.078125 1.21875l-0.6875 -0.578125q0.453125 -0.296875 0.796875 -0.796875q0.34375 -0.5 0.40625 -0.9375l-0.25 0.03125q-0.390625 0 -0.65625 -0.25q-0.25 -0.265625 -0.25 -0.703125q0 -0.40625 0.28125 -0.703125q0.296875 -0.296875 0.703125 -0.296875q0.46875 0 0.8125 0.359375q0.359375 0.359375 0.359375 1.046875zm-2.984375 0q0 0.859375 -0.4375 1.609375q-0.4375 0.75 -1.09375 1.21875l-0.6875 -0.578125q0.453125 -0.296875 0.796875 -0.796875q0.359375 -0.5 0.421875 -0.9375l-0.265625 0.03125q-0.390625 0 -0.640625 -0.25q-0.25 -0.265625 -0.25 -0.703125q0 -0.40625 0.265625 -0.703125q0.28125 -0.296875 0.71875 -0.296875q0.46875 0 0.8125 0.359375q0.359375 0.359375 0.359375 1.046875z" fill-rule="nonzero"/><path fill="#000000" fill-opacity="0.0" d="m479.47244 202.27953l79.87399 59.43306" fill-rule="evenodd"/><path stroke="#666666" stroke-width="1.0" stroke-linejoin="round" stroke-linecap="butt" d="m479.47244 202.27953l75.060394 55.851303" fill-rule="evenodd"/><path fill="#666666" stroke="#666666" stroke-width="1.0" stroke-linecap="butt" d="m553.5468 259.456l4.62677 1.3839111l-2.6547241 -4.03421z" fill-rule="evenodd"/><path fill="#000000" fill-opacity="0.0" d="m622.2336 202.27296l-62.897644 59.43306" fill-rule="evenodd"/><path stroke="#666666" stroke-width="1.0" stroke-linejoin="round" stroke-linecap="butt" d="m622.2336 202.27296l-58.53656 55.31224" fill-rule="evenodd"/><path fill="#666666" stroke="#666666" stroke-width="1.0" stroke-linecap="butt" d="m562.56256 256.38464l-2.1640015 4.3173523l4.4328613 -1.9162292z" fill-rule="evenodd"/><path fill="#000000" fill-opacity="0.0" d="m559.33594 305.76904l0 65.03937" fill-rule="evenodd"/><path stroke="#666666" stroke-width="1.0" stroke-linejoin="round" stroke-linecap="butt" d="m559.33594 305.76904l0 65.03937" fill-rule="evenodd"/><path fill="#000000" fill-opacity="0.0" d="m559.33594 305.76904l-108.5354 59.873993" fill-rule="evenodd"/><path stroke="#666666" stroke-width="1.0" stroke-linejoin="round" stroke-linecap="butt" d="m559.33594 305.76904l-108.5354 59.873993" fill-rule="evenodd"/><path fill="#000000" fill-opacity="0.0" d="m559.3307 305.76117l108.53546 59.433044" fill-rule="evenodd"/><path stroke="#666666" stroke-width="1.0" stroke-linejoin="round" stroke-linecap="butt" d="m559.3307 305.76117l108.53546 59.433044" fill-rule="evenodd"/><path fill="#000000" fill-opacity="0.0" d="m24.850393 34.648293l265.6378 0l0 60.125984l-265.6378 0z" fill-rule="evenodd"/><path fill="#ff7575" d="m63.89727 80.598915l-4.3125 0l0 -1.6875l-14.390625 0l0 2.25l-4.3125 0l0 -31.734375l23.015625 0l0 31.171875zm-4.3125 -23.015625l0 -3.984375l-14.390625 0l0 3.984375l14.390625 0zm0 8.296875l0 -4.125l-14.390625 0l0 4.125l14.390625 0zm0 8.859375l0 -4.6875l-14.390625 0l0 4.6875l14.390625 0zm24.046875 -11.671875l0 -1.3125l-4.6875 0l0 1.3125l4.6875 0zm0 4.171875l-4.6875 0l0 1.453125l4.6875 0l0 -1.453125zm0.328125 9.609375q0 0.328125 -0.328125 0.328125l0 -4.3125l-4.6875 0l0 8.4375l-4.3125 0l0 -23.71875l13.3125 0l0 20.296875q0 3.140625 -3.0 3.140625l-3.390625 0l-1.09375 -4.171875l3.5 0zm6.5625 -18.5625l4.3125 0l0 17.671875l-4.3125 0l0 -17.671875zm7.921875 18.421875q0 0.328125 -0.328125 0.328125l0 -19.875l3.5 0q3.25 0.65625 0.8125 2.28125l0 18.296875q0 3.140625 -3.0 3.140625l-3.703125 0l-0.875 -4.171875l3.59375 0zm-1.90625 -25.984375q-0.6875 1.25 -1.21875 2.078125l10.0625 0l0 4.171875l-33.84375 0l0 -4.171875l9.171875 0q-0.359375 -0.828125 -1.96875 -2.84375l3.796875 -2.125q2.046875 2.046875 3.4375 4.96875l4.296875 0q1.296875 -2.234375 2.515625 -5.546875l4.09375 1.421875q1.75 1.75 -0.34375 2.046875zm10.8125 25.578125q1.328125 -3.796875 1.984375 -9.03125l3.546875 0.78125q1.25 1.265625 0.046875 1.984375q-0.53125 4.0625 -1.796875 8.046875l-3.78125 -1.78125zm7.921875 -13.75l1.71875 -0.109375l-0.984375 -2.078125l3.390625 -1.578125q1.796875 2.875 2.25 6.296875l-0.75 -16.21875l19.359367 0l0 29.15625q0 2.859375 -2.578125 2.859375l-3.25 0l-0.9375 -3.75l3.203125 0q0 0.328125 -0.328125 0.328125l0 -9.65625l-6.234375 0l0 3.1875q0 0.09375 0.09375 0.09375l5.671875 0l0 3.75l-6.375 0q-3.2812424 0 -3.2812424 -3.28125l0 -3.75l-1.453125 0l0 13.5l-3.890625 0l0 -14.34375l-1.765625 0.828125l-0.640625 -1.609375l-1.4375 0.140625l0 14.84375l-3.890625 0l0 -14.40625l-3.1875 0.296875q-0.984375 2.9375 -2.0 -0.109375l-0.546875 -4.15625l2.875 0l1.796875 -2.4375q-1.953125 -2.1875 -4.75 -4.625l2.75 -2.96875l1.078125 1.078125l3.265625 -6.390625l3.125 1.828125q2.15625 1.734375 -0.515625 2.03125l-3.046875 5.359375l0.328125 0.328125l3.4375 -5.484375l2.921875 2.0q2.125 1.71875 -0.59375 2.015625l-4.828125 7.03125zm15.531242 -3.984375l2.015625 -6.34375l3.375 0.890625q3.453125 0.984375 -0.078125 2.046875l-1.5 3.40625l1.75 0l0 -5.953125l-11.578117 0l0 5.953125l6.0156174 0zm-10.843742 8.390625q1.578125 3.703125 2.078125 8.171875l-3.84375 1.578125q-0.515625 -4.859375 -1.703125 -8.59375l3.46875 -1.15625zm8.249992 -14.59375q1.6875 2.0625 3.125 5.65625l-3.6562424 1.609375q-1.21875 -3.46875 -3.0 -5.84375l3.5312424 -1.421875zm-3.4218674 11.6875l3.8437424 0l0 -1.734375l-3.8437424 0l0 1.734375zm11.578117 0l0 -1.734375l-3.84375 0l0 1.734375l3.84375 0zm13.3125 -4.625q1.125 6.25 1.765625 12.515625l-4.3125 0.421875q-0.625 -5.90625 -1.90625 -12.09375l4.453125 -0.84375zm14.390625 -11.265625l3.46875 0q3.078125 0.390625 0.84375 1.984375l0 4.484375l8.578125 0l0 4.171875l-8.578125 0l0 4.6875l7.453125 0l0 16.96875l-4.3125 0l0 -1.6875l-8.203125 0l0 1.96875l-4.3125 0l0 -17.25l5.0625 0l0 -15.328125zm-4.125 10.78125l-15.84375 0l0 -4.171875l6.046875 0l0 -6.328125l3.46875 0q3.078125 0.390625 0.84375 1.984375l0 4.34375l5.484375 0l0 4.171875zm-12.828125 18.625q-0.859375 2.890625 -2.265625 -0.25l-1.296875 -3.71875l8.375 -1.03125q1.03125 -6.296875 1.34375 -14.1875l4.46875 1.0625q3.265625 1.453125 0.171875 2.296875q-0.5 5.140625 -1.5625 10.3125l3.3125 -0.53125l0 4.046875l-12.546875 2.0zm16.203125 -2.96875l8.203125 0l0 -6.9375l-8.203125 0l0 6.9375zm28.359375 -14.765625q0.59375 0 0.65625 -0.578125l0.234375 -3.828125l-1.984375 0q-0.140625 5.765625 -8.578125 9.984375l-1.71875 -4.265625q5.75 -2.21875 5.953125 -5.71875l-4.59375 0l0 -4.171875l4.78125 0l0 -3.515625l3.46875 0q3.078125 0.390625 0.84375 1.984375l0 1.53125l6.234375 0l-0.609375 8.828125q-0.34375 3.921875 -3.703125 3.921875l-3.03125 0l-0.65625 -4.171875l2.703125 0zm15.0 3.890625l0.046875 -0.75l-5.015625 0.046875l0 0.984375l-4.3125 0l0 -14.15625l13.59375 0l0 13.875l-4.3125 0zm-4.96875 -4.875l4.96875 0l0 -4.828125l-4.96875 0l0 4.828125zm-4.078125 4.5q3.078125 0.390625 0.84375 1.984375l0 0.40625l12.9375 0l0 4.171875l-11.359375 0q2.28125 2.375 12.6875 5.046875l-1.4375 4.703125q-8.890625 -2.65625 -12.828125 -6.265625l0 7.90625l-4.3125 0l0 -7.28125q-2.625 3.109375 -12.265625 5.90625l-1.4375 -4.703125q9.265625 -2.09375 12.09375 -5.3125l-11.328125 0l0 -4.171875l12.9375 0l0 -2.390625l3.46875 0zm17.296875 6.0q4.171875 -6.109375 5.203125 -10.828125l-4.03125 0l0 -4.171875l4.359375 0l0 -6.75l3.46875 0q3.078125 0.390625 0.84375 1.984375l0 4.765625l3.9375 0l0 4.171875l-3.9375 0l0 3.328125q2.21875 1.359375 4.84375 3.625l-2.328125 4.21875q-2.65625 -2.65625 -2.578125 -2.6875l0.0625 14.71875l-4.3125 0l0.75 -16.5q-0.15625 3.28125 -3.328125 7.703125l-2.953125 -3.578125zm18.28125 12.234375l-3.890625 0l0 -6.1875l-2.953125 0l0 -3.75l2.953125 0l0 -8.4375l6.609375 0l0 -0.1875l-9.703125 0l0 -3.75l6.046875 0l0 -0.609375l-3.65625 0l0 -3.75l3.65625 0l0 -0.328125l-5.0625 0l0 -3.75l5.0625 0l0 -3.375l3.046875 0q3.078125 0.390625 0.84375 1.984375l0 1.390625l3.140625 0l0 -3.375l3.046875 0q3.078125 0.390625 0.84375 1.984375l0 1.390625l5.34375 0l0 3.75l-5.34375 0l0 0.328125l3.796875 0l0 3.75l-3.796875 0l0 0.609375l6.1875 0l0 3.75l-9.5625 0l0 0.1875l6.75 0l0 8.4375l2.953125 0l0 3.75l-2.953125 0l0 3.1875q0 2.578125 -2.4375 2.578125l-3.34375 0l-0.4375 -4.171875l2.65625 0q0 0.328125 -0.328125 0.1875l0 -1.78125l-9.46875 0l0 6.1875zm2.953125 -26.671875l3.140625 0l0 -0.328125l-3.140625 0l0 0.328125zm0 4.359375l3.140625 0l0 -0.609375l-3.140625 0l0 0.609375zm3.65625 8.15625l2.859375 0l0 -0.46875l-2.859375 0l0 0.46875zm-6.609375 0l2.71875 0l0 -0.46875l-2.71875 0l0 0.46875zm0 4.21875l2.71875 0l0 -0.46875l-2.71875 0l0 0.46875zm6.609375 0l2.859375 0l0 -0.46875l-2.859375 0l0 0.46875z" fill-rule="nonzero"/><path fill="#c9daf8" d="m406.3491 372.63794l0 0c0 -3.8675232 3.1352234 -7.002777 7.0027466 -7.002777l74.90787 0c1.8572388 0 3.6384277 0.73779297 4.9516907 2.051056c1.3132935 1.3132935 2.0510864 3.0944824 2.0510864 4.951721l0 28.010223c0 3.8675232 -3.135254 7.0027466 -7.002777 7.0027466l-74.90787 0c-3.8675232 0 -7.0027466 -3.1352234 -7.0027466 -7.0027466z" fill-rule="evenodd"/><path stroke="#c9daf8" stroke-width="1.0" stroke-linejoin="round" stroke-linecap="butt" d="m406.3491 372.63794l0 0c0 -3.8675232 3.1352234 -7.002777 7.0027466 -7.002777l74.90787 0c1.8572388 0 3.6384277 0.73779297 4.9516907 2.051056c1.3132935 1.3132935 2.0510864 3.0944824 2.0510864 4.951721l0 28.010223c0 3.8675232 -3.135254 7.0027466 -7.002777 7.0027466l-74.90787 0c-3.8675232 0 -7.0027466 -3.1352234 -7.0027466 -7.0027466z" fill-rule="evenodd"/><path fill="#c9daf8" d="m514.8793 372.197l0 0c0 -3.8675232 3.135254 -7.002777 7.0027466 -7.002777l74.90784 0c1.8572998 0 3.6384888 0.73779297 4.951721 2.0510864c1.3132935 1.3132629 2.0510864 3.094452 2.0510864 4.9516907l0 28.010223c0 3.8675232 -3.135254 7.0027466 -7.0028076 7.0027466l-74.90784 0c-3.8674927 0 -7.0027466 -3.1352234 -7.0027466 -7.0027466z" fill-rule="evenodd"/><path stroke="#c9daf8" stroke-width="1.0" stroke-linejoin="round" stroke-linecap="butt" d="m514.8793 372.197l0 0c0 -3.8675232 3.135254 -7.002777 7.0027466 -7.002777l74.90784 0c1.8572998 0 3.6384888 0.73779297 4.951721 2.0510864c1.3132935 1.3132629 2.0510864 3.094452 2.0510864 4.9516907l0 28.010223c0 3.8675232 -3.135254 7.0027466 -7.0028076 7.0027466l-74.90784 0c-3.8674927 0 -7.0027466 -3.1352234 -7.0027466 -7.0027466z" fill-rule="evenodd"/><path fill="#c9daf8" d="m623.4094 372.197l0 0c0 -3.8675232 3.135254 -7.002777 7.0028076 -7.002777l74.90784 0c1.8572388 0 3.6384277 0.73779297 4.951721 2.0510864c1.3132324 1.3132629 2.0510254 3.094452 2.0510254 4.9516907l0 28.010223c0 3.8675232 -3.135254 7.0027466 -7.0027466 7.0027466l-74.90784 0c-3.8675537 0 -7.0028076 -3.1352234 -7.0028076 -7.0027466z" fill-rule="evenodd"/><path stroke="#c9daf8" stroke-width="1.0" stroke-linejoin="round" stroke-linecap="butt" d="m623.4094 372.197l0 0c0 -3.8675232 3.135254 -7.002777 7.0028076 -7.002777l74.90784 0c1.8572388 0 3.6384277 0.73779297 4.951721 2.0510864c1.3132324 1.3132629 2.0510254 3.094452 2.0510254 4.9516907l0 28.010223c0 3.8675232 -3.135254 7.0027466 -7.0027466 7.0027466l-74.90784 0c-3.8675537 0 -7.0028076 -3.1352234 -7.0028076 -7.0027466z" fill-rule="evenodd"/><path fill="#000000" fill-opacity="0.0" d="m514.8793 363.14697l88.91339 0l0 42.015747l-88.91339 0z" fill-rule="evenodd"/><path fill="#000000" d="m533.7416 390.28574q-1.984375 0 -3.25 -1.34375q-1.25 -1.34375 -1.25 -3.390625q0 -2.03125 1.25 -3.375q1.265625 -1.34375 3.25 -1.34375q2.09375 0 3.296875 1.5625l-0.921875 0.859375q-0.859375 -1.171875 -2.296875 -1.171875q-1.390625 0 -2.265625 0.96875q-0.859375 0.953125 -0.859375 2.5q0 1.5625 0.859375 2.53125q0.859375 0.953125 2.265625 0.953125q1.40625 0 2.296875 -1.171875l0.921875 0.859375q-1.203125 1.5625 -3.296875 1.5625zm9.187988 0q-1.953125 0 -3.203125 -1.328125q-1.25 -1.328125 -1.25 -3.40625q0 -2.09375 1.25 -3.40625q1.25 -1.3125 3.203125 -1.3125q1.96875 0 3.21875 1.3125q1.25 1.3125 1.25 3.40625q0 2.078125 -1.25 3.40625q-1.25 1.328125 -3.21875 1.328125zm0 -1.25q1.3125 0 2.15625 -0.96875q0.84375 -0.984375 0.84375 -2.515625q0 -1.515625 -0.84375 -2.484375q-0.84375 -0.984375 -2.15625 -0.984375q-1.296875 0 -2.15625 0.96875q-0.84375 0.96875 -0.84375 2.5q0 1.546875 0.84375 2.515625q0.84375 0.96875 2.15625 0.96875zm12.827576 1.03125l0 -5.890625q0 -1.203125 -0.5625 -1.640625q-0.546875 -0.453125 -1.453125 -0.453125q-0.78125 0 -1.546875 0.421875q-0.75 0.421875 -1.125 0.984375l0 6.578125l-1.390625 0l0 -9.015625l1.390625 0l0 1.3125q0.578125 -0.671875 1.421875 -1.09375q0.859375 -0.4375 1.78125 -0.4375q2.875 0 2.875 2.90625l0 6.328125l-1.390625 0zm6.467102 0.21875q-2.0 0 -2.0 -2.109375l0 -5.890625l-1.484375 0l0 -1.234375l1.484375 0l0 -2.453125l1.40625 0l0 2.453125l1.828125 0l0 1.234375l-1.828125 0l0 5.59375q0 0.515625 0.21875 0.84375q0.234375 0.3125 0.703125 0.3125q0.578125 0 0.9375 -0.375l0.421875 1.046875q-0.578125 0.578125 -1.6875 0.578125zm7.2818604 0q-2.03125 0 -3.3125 -1.3125q-1.28125 -1.328125 -1.28125 -3.421875q0 -2.0 1.265625 -3.359375q1.28125 -1.359375 3.171875 -1.359375q1.9375 0 3.125 1.34375q1.203125 1.34375 1.203125 3.484375l0 0.359375l-7.296875 0q0.078125 1.375 1.0 2.25q0.921875 0.859375 2.25 0.859375q1.640625 0 2.78125 -1.140625l0.671875 0.921875q-1.375 1.375 -3.578125 1.375zm2.796875 -5.296875q0 -1.25 -0.828125 -2.125q-0.8125 -0.875 -2.140625 -0.875q-1.25 0 -2.078125 0.875q-0.828125 0.875 -0.875 2.125l5.921875 0zm9.722168 5.078125l0 -5.890625q0 -1.203125 -0.5625 -1.640625q-0.546875 -0.453125 -1.453125 -0.453125q-0.78125 0 -1.546875 0.421875q-0.75 0.421875 -1.125 0.984375l0 6.578125l-1.390625 0l0 -9.015625l1.390625 0l0 1.3125q0.578125 -0.671875 1.421875 -1.09375q0.859375 -0.4375 1.78125 -0.4375q2.875 0 2.875 2.90625l0 6.328125l-1.390625 0zm6.467102 0.21875q-2.0 0 -2.0 -2.109375l0 -5.890625l-1.484375 0l0 -1.234375l1.484375 0l0 -2.453125l1.40625 0l0 2.453125l1.828125 0l0 1.234375l-1.828125 0l0 5.59375q0 0.515625 0.21875 0.84375q0.234375 0.3125 0.703125 0.3125q0.578125 0 0.9375 -0.375l0.421875 1.046875q-0.578125 0.578125 -1.6875 0.578125z" fill-rule="nonzero"/><path fill="#000000" fill-opacity="0.0" d="m623.4094 364.98358l88.91339 0l0 42.015747l-88.91339 0z" fill-rule="evenodd"/><path fill="#000000" d="m641.75323 391.9036l0 -7.78125l-1.5 0l0 -1.234375l1.5 0l0 -0.6875q0 -1.390625 0.6875 -2.15625q0.703125 -0.765625 1.921875 -0.765625q1.140625 0 1.90625 0.6875l-0.578125 0.90625q-0.484375 -0.4375 -1.125 -0.4375q-1.421875 0 -1.421875 1.765625l0 0.6875l1.828125 0l0 1.234375l-1.828125 0l0 7.78125l-1.390625 0zm4.889099 0l0 -9.015625l1.390625 0l0 1.453125q1.25 -1.640625 3.0 -1.640625l0 1.4375l-0.546875 -0.046875q-0.640625 0 -1.40625 0.453125q-0.765625 0.453125 -1.046875 0.984375l0 6.375l-1.390625 0zm6.844116 -10.296875q-0.375 0 -0.65625 -0.265625q-0.28125 -0.28125 -0.28125 -0.671875q0 -0.390625 0.28125 -0.671875q0.28125 -0.28125 0.65625 -0.28125q0.390625 0 0.671875 0.28125q0.28125 0.28125 0.28125 0.671875q0 0.390625 -0.28125 0.671875q-0.28125 0.265625 -0.671875 0.265625zm-0.6875 10.296875l0 -9.015625l1.390625 0l0 9.015625l-1.390625 0zm8.260132 0.21875q-2.03125 0 -3.3125 -1.3125q-1.28125 -1.328125 -1.28125 -3.421875q0 -2.0 1.265625 -3.359375q1.28125 -1.359375 3.171875 -1.359375q1.9375 0 3.125 1.34375q1.203125 1.34375 1.203125 3.484375l0 0.359375l-7.296875 0q0.078125 1.375 1.0 2.25q0.921875 0.859375 2.25 0.859375q1.640625 0 2.78125 -1.140625l0.671875 0.921875q-1.375 1.375 -3.578125 1.375zm2.796875 -5.296875q0 -1.25 -0.828125 -2.125q-0.8125 -0.875 -2.140625 -0.875q-1.25 0 -2.078125 0.875q-0.828125 0.875 -0.875 2.125l5.921875 0zm9.722229 5.078125l0 -5.890625q0 -1.203125 -0.5625 -1.640625q-0.546875 -0.453125 -1.453125 -0.453125q-0.78125 0 -1.546875 0.421875q-0.75 0.421875 -1.125 0.984375l0 6.578125l-1.390625 0l0 -9.015625l1.390625 0l0 1.3125q0.578125 -0.671875 1.421875 -1.09375q0.859375 -0.4375 1.78125 -0.4375q2.875 0 2.875 2.90625l0 6.328125l-1.390625 0zm10.717102 0l0 -1.34375q-0.5 0.6875 -1.296875 1.125q-0.78125 0.4375 -1.734375 0.4375q-1.8125 0 -2.921875 -1.28125q-1.09375 -1.28125 -1.09375 -3.4375q0 -2.15625 1.109375 -3.4375q1.109375 -1.296875 2.90625 -1.296875q0.90625 0 1.703125 0.421875q0.796875 0.421875 1.328125 1.15625l0 -4.78125l1.40625 0l0 12.4375l-1.40625 0zm-2.703125 -1.03125q0.84375 0 1.59375 -0.40625q0.75 -0.40625 1.109375 -1.0l0 -4.09375q-0.359375 -0.59375 -1.109375 -1.015625q-0.75 -0.4375 -1.59375 -0.4375q-1.296875 0 -2.09375 0.953125q-0.796875 0.953125 -0.796875 2.53125q0 1.546875 0.78125 2.515625q0.796875 0.953125 2.109375 0.953125zm9.758606 1.25q-2.296875 0 -3.640625 -1.40625l0.734375 -1.015625q0.453125 0.53125 1.234375 0.90625q0.796875 0.375 1.734375 0.375q1.046875 0 1.578125 -0.4375q0.546875 -0.4375 0.546875 -1.109375q0 -0.59375 -0.59375 -0.9375q-0.578125 -0.34375 -2.1875 -0.71875q-1.359375 -0.28125 -2.078125 -0.875q-0.71875 -0.609375 -0.71875 -1.640625q0 -1.140625 0.90625 -1.859375q0.921875 -0.734375 2.453125 -0.734375q2.03125 0 3.34375 1.3125l-0.65625 0.96875q-0.40625 -0.484375 -1.109375 -0.8125q-0.703125 -0.328125 -1.578125 -0.328125q-0.9375 0 -1.46875 0.40625q-0.53125 0.40625 -0.53125 1.015625q0 0.53125 0.59375 0.859375q0.609375 0.3125 2.203125 0.640625q1.359375 0.328125 2.0625 0.96875q0.71875 0.640625 0.71875 1.703125q0 1.25 -0.96875 1.984375q-0.96875 0.734375 -2.578125 0.734375z" fill-rule="nonzero"/><path fill="#000000" fill-opacity="0.0" d="m406.3491 363.58728l88.91339 0l0 42.015747l-88.91339 0z" fill-rule="evenodd"/><path fill="#000000" d="m430.8013 390.726q-1.921875 0 -3.046875 -1.578125l0 4.796875l-1.390625 0l0 -12.453125l1.390625 0l0 1.34375q0.484375 -0.6875 1.28125 -1.125q0.8125 -0.4375 1.765625 -0.4375q1.8125 0 2.90625 1.265625q1.09375 1.265625 1.09375 3.453125q0 2.171875 -1.09375 3.453125q-1.078125 1.28125 -2.90625 1.28125zm-0.359375 -1.25q1.3125 0 2.09375 -0.9375q0.796875 -0.953125 0.796875 -2.546875q0 -1.546875 -0.78125 -2.5q-0.78125 -0.96875 -2.109375 -0.96875q-0.84375 0 -1.578125 0.421875q-0.734375 0.421875 -1.109375 1.015625l0 4.0625q0.375 0.59375 1.109375 1.03125q0.734375 0.421875 1.578125 0.421875zm6.593231 1.03125l0 -9.015625l1.390625 0l0 1.453125q1.25 -1.640625 3.0 -1.640625l0 1.4375l-0.546875 -0.046875q-0.640625 0 -1.40625 0.453125q-0.765625 0.453125 -1.046875 0.984375l0 6.375l-1.390625 0zm10.078461 0.21875q-1.953125 0 -3.203125 -1.328125q-1.25 -1.328125 -1.25 -3.40625q0 -2.09375 1.25 -3.40625q1.25 -1.3125 3.203125 -1.3125q1.96875 0 3.21875 1.3125q1.25 1.3125 1.25 3.40625q0 2.078125 -1.25 3.40625q-1.25 1.328125 -3.21875 1.328125zm0 -1.25q1.3125 0 2.15625 -0.96875q0.84375 -0.984375 0.84375 -2.515625q0 -1.515625 -0.84375 -2.484375q-0.84375 -0.984375 -2.15625 -0.984375q-1.296875 0 -2.15625 0.96875q-0.84375 0.96875 -0.84375 2.5q0 1.546875 0.84375 2.515625q0.84375 0.96875 2.15625 0.96875zm7.140106 1.03125l0 -7.78125l-1.5 0l0 -1.234375l1.5 0l0 -0.6875q0 -1.390625 0.71875 -2.15625q0.71875 -0.765625 1.890625 -0.765625q0.875 0 1.359375 0.3125l-0.359375 1.0625q-0.34375 -0.21875 -0.796875 -0.21875q-1.421875 0 -1.421875 1.765625l0 0.6875l1.828125 0l0 1.234375l-1.828125 0l0 7.78125l-1.390625 0zm5.578125 -10.296875q-0.375 0 -0.65625 -0.265625q-0.28125 -0.28125 -0.28125 -0.671875q0 -0.390625 0.28125 -0.671875q0.28125 -0.28125 0.65625 -0.28125q0.390625 0 0.671875 0.28125q0.28125 0.28125 0.28125 0.671875q0 0.390625 -0.28125 0.671875q-0.28125 0.265625 -0.671875 0.265625zm-0.6875 10.296875l0 -9.015625l1.390625 0l0 9.015625l-1.390625 0zm4.2147827 0l0 -12.4375l1.390625 0l0 12.4375l-1.390625 0zm8.260162 0.21875q-2.03125 0 -3.3125 -1.3125q-1.28125 -1.328125 -1.28125 -3.421875q0 -2.0 1.265625 -3.359375q1.28125 -1.359375 3.171875 -1.359375q1.9375 0 3.125 1.34375q1.203125 1.34375 1.203125 3.484375l0 0.359375l-7.296875 0q0.078125 1.375 1.0 2.25q0.921875 0.859375 2.25 0.859375q1.640625 0 2.78125 -1.140625l0.671875 0.921875q-1.375 1.375 -3.578125 1.375zm2.796875 -5.296875q0 -1.25 -0.828125 -2.125q-0.8125 -0.875 -2.140625 -0.875q-1.25 0 -2.078125 0.875q-0.828125 0.875 -0.875 2.125l5.921875 0z" fill-rule="nonzero"/></g></svg>