<svg version="1.1" viewBox="0.0 0.0 960.0 540.0" fill="none" stroke="none" stroke-linecap="square" stroke-miterlimit="10" xmlns:xlink="http://www.w3.org/1999/xlink" xmlns="http://www.w3.org/2000/svg"><clipPath id="g20111129e14_0_47.0"><path d="m0 0l960.0 0l0 540.0l-960.0 0l0 -540.0z" clip-rule="nonzero"/></clipPath><g clip-path="url(#g20111129e14_0_47.0)"><path fill="#ffffff" d="m0 0l960.0 0l0 540.0l-960.0 0z" fill-rule="evenodd"/><path fill="#000000" fill-opacity="0.0" d="m32.72441 46.721786l894.55115 0l0 60.125984l-894.55115 0z" fill-rule="evenodd"/><path fill="#ff7575" d="m43.22441 88.375534q1.328125 -3.796875 1.984375 -9.03125l3.546875 0.78125q1.25 1.265625 0.046875 1.984375q-0.53125 4.0625 -1.796875 8.046875l-3.78125 -1.78125zm7.921875 -13.75l1.71875 -0.109375l-0.984375 -2.078125l3.390625 -1.578125q1.796875 2.875 2.25 6.296875l-0.75 -16.21875l19.359375 0l0 29.15625q0 2.859375 -2.578125 2.859375l-3.25 0l-0.9375 -3.75l3.203125 0q0 0.328125 -0.328125 0.328125l0 -9.65625l-6.234375 0l0 3.1875q0 0.09375 0.09375 0.09375l5.671875 0l0 3.75l-6.375 0q-3.28125 0 -3.28125 -3.28125l0 -3.75l-1.453125 0l0 13.5l-3.890625 0l0 -14.34375l-1.765625 0.828125l-0.640625 -1.609375l-1.4375 0.140625l0 14.84375l-3.890625 0l0 -14.40625l-3.1875 0.296875q-0.984375 2.9375 -2.0 -0.109375l-0.546875 -4.15625l2.875 0l1.796875 -2.4375q-1.953125 -2.1875 -4.75 -4.625l2.75 -2.96875l1.078125 1.078125l3.265625 -6.390625l3.125 1.828125q2.15625 1.734375 -0.515625 2.03125l-3.046875 5.359375l0.328125 0.328125l3.4375 -5.484375l2.921875 2.0q2.125 1.71875 -0.59375 2.015625l-4.828125 7.03125zm15.53125 -3.984375l2.015625 -6.34375l3.375 0.890625q3.453125 0.984375 -0.078125 2.046875l-1.5 3.40625l1.75 0l0 -5.953125l-11.578125 0l0 5.953125l6.015625 0zm-10.84375 8.390625q1.578125 3.703125 2.078125 8.171875l-3.84375 1.578125q-0.515625 -4.859375 -1.703125 -8.59375l3.46875 -1.15625zm8.25 -14.59375q1.6875 2.0625 3.125 5.65625l-3.65625 1.609375q-1.21875 -3.46875 -3.0 -5.84375l3.53125 -1.421875zm-3.421875 11.6875l3.84375 0l0 -1.734375l-3.84375 0l0 1.734375zm11.578125 0l0 -1.734375l-3.84375 0l0 1.734375l3.84375 0zm13.3125 -4.625q1.125 6.25 1.765625 12.515625l-4.3125 0.421875q-0.625 -5.90625 -1.90625 -12.09375l4.453125 -0.84375zm14.390625 -11.265625l3.46875 0q3.078125 0.390625 0.84375 1.984375l0 4.484375l8.578125 0l0 4.171875l-8.578125 0l0 4.6875l7.453125 0l0 16.96875l-4.3125 0l0 -1.6875l-8.203125 0l0 1.96875l-4.3125 0l0 -17.25l5.0625 0l0 -15.328125zm-4.125 10.78125l-15.84375 0l0 -4.171875l6.046875 0l0 -6.328125l3.46875 0q3.078125 0.390625 0.84375 1.984375l0 4.34375l5.484375 0l0 4.171875zm-12.828125 18.625q-0.859375 2.890625 -2.265625 -0.25l-1.296875 -3.71875l8.375 -1.03125q1.03125 -6.296875 1.34375 -14.1875l4.46875 1.0625q3.265625 1.453125 0.171875 2.296875q-0.5 5.140625 -1.5625 10.3125l3.3125 -0.53125l0 4.046875l-12.546875 2.0zm16.203125 -2.96875l8.203125 0l0 -6.9375l-8.203125 0l0 6.9375zm38.640625 5.578125l-0.421875 -4.59375l4.0625 0q1.109375 0 1.21875 -3.21875l0.65625 -12.578125l-4.1875 0q0.546875 16.703125 -16.046875 21.109375l-1.421875 -4.671875q13.671875 -3.5625 13.15625 -16.4375l-6.078125 0l0 -4.171875l6.046875 0l0 -7.734375l3.46875 0q3.078125 0.390625 0.84375 1.984375l0 5.75l8.890625 0l-0.875 17.515625q-0.3125 7.046875 -4.40625 7.046875l-4.90625 0zm-12.203125 -24.046875l0 10.78125l5.53125 -1.515625l0.421875 4.4375l-12.484375 3.84375q-0.28125 2.15625 -2.046875 0.390625l-1.421875 -4.59375l5.6875 -1.453125l0 -11.890625l-4.640625 0l0 -4.171875l13.875 0l0 4.171875l-4.921875 0zm39.90625 -5.78125q3.125 3.453125 5.65625 7.6875l-3.9375 2.28125l-1.265625 -1.890625l-11.484375 1.15625q-0.265625 1.890625 -2.03125 0.125l-1.125 -4.515625l4.234375 0l2.859375 -7.734375l4.359375 1.046875q1.78125 1.78125 -0.328125 2.078125l-2.5 4.375l3.828125 -0.234375l-1.78125 -2.390625l3.515625 -1.984375zm-6.859375 13.375l0 0.890625l5.109375 0l0 -0.890625l-5.109375 0zm0 5.0625l0 0.890625l5.109375 0l0 -0.890625l-5.109375 0zm9.421875 -9.234375l0 18.46875q0 3.0 -3.0 3.0l-3.03125 0l-0.65625 -4.171875l2.703125 0q0 0.328125 -0.328125 0.328125l0 -3.328125l-5.109375 0l0 7.3125l-4.3125 0l0 -21.609375l13.734375 0zm5.484375 5.484375q3.078125 0.390625 0.84375 1.984375l0 2.1875l7.59375 -2.796875l1.796875 3.0625q0.375 2.640625 -1.671875 1.46875l-7.71875 2.03125l0 3.359375q0 0.234375 0.09375 0.234375l5.625 0q0.328125 0 0.390625 -0.359375l0.546875 -3.140625l4.421875 0.84375l-0.6875 3.96875q-0.53125 2.859375 -3.125 2.859375l-8.296875 0q-3.28125 0 -3.28125 -3.140625l0 -12.5625l3.46875 0zm9.671875 -10.640625q0.375 2.671875 -1.65625 1.515625l-7.171875 2.0l0 2.8125q0 0.234375 0.09375 0.234375l5.625 0q0.1875 0 0.234375 -0.46875l0.375 -3.328125l4.421875 0.84375l-0.34375 3.78125q-0.359375 3.34375 -3.421875 3.34375l-8.015625 0q-3.28125 0 -3.28125 -3.140625l0 -13.265625l3.46875 0q3.078125 0.390625 0.84375 1.984375l0 3.390625l6.703125 -2.890625l2.125 3.1875z" fill-rule="nonzero"/><path fill="#000000" fill-opacity="0.0" d="m32.72441 120.99475l894.55115 0l0 358.67715l-894.55115 0z" fill-rule="evenodd"/><path fill="#666666" d="m44.06816 149.691l3.15625 0l0 3.0625l-3.15625 0l0 -3.0625zm35.421875 5.203125q-3.40625 -0.859375 -5.8125 -2.0625q-2.28125 1.578125 -5.359375 2.234375l-1.34375 -2.390625q3.453125 -0.890625 4.5625 -1.625q-1.046875 -1.046875 -1.625 -2.515625l-1.375 0l0 -2.5l7.890625 0l0.578125 -0.578125l1.484375 1.484375q1.40625 1.640625 -0.390625 1.4375q-1.078125 1.671875 -1.984375 2.515625q1.5 0.6875 5.09375 1.265625l-1.71875 2.734375zm-11.046875 -8.578125l-0.3125 5.03125q-0.21875 3.5625 -3.875 3.5625l-2.171875 0l-0.734375 -2.78125l2.90625 0q1.03125 0 1.09375 -1.03125l0.15625 -2.28125l-2.234375 0l-0.1875 1.03125l-3.015625 0q0.96875 -4.15625 1.3125 -6.90625l4.4375 0l0 -0.96875l-3.65625 0l0.34375 -0.5q-0.375 0.640625 -2.296875 1.359375l-1.484375 -2.359375q3.234375 -1.234375 4.421875 -2.03125l-2.5625 -2.109375l2.046875 -1.890625l3.046875 2.28125q1.234375 -0.859375 1.5 -1.21875l-3.609375 0l0 -2.5l5.5625 0l0.390625 -0.65625l1.859375 1.109375q1.703125 1.234375 -0.140625 1.453125l-0.0625 -0.296875q0.96875 0.46875 1.28125 0.671875l2.203125 -2.203125l1.75 0.9375q1.96875 1.296875 -0.328125 1.296875l-1.421875 1.421875q-0.03125 -0.015625 0.53125 0.203125l2.28125 -2.375l1.6875 0.953125q1.609375 1.296875 -0.25 1.296875l-1.359375 1.421875q1.234375 0.609375 3.984375 1.53125l-1.265625 2.8125q-2.359375 -0.9375 -3.703125 -1.671875l0 2.15625q0 0.34375 0.25 0.34375l0.46875 0q0.03125 0 0.0625 -0.234375l0.296875 -1.578125l2.78125 0.734375l-0.5 1.90625q-0.484375 1.671875 -2.078125 1.671875l-1.78125 0q-2.09375 0 -2.09375 -2.28125l0 -1.75l-1.53125 0l0 0.71875q0 2.5625 -3.265625 4.1875l-1.59375 -2.046875q2.265625 -0.96875 2.265625 -2.421875l0 -2.9375l3.984375 0q-2.0 -1.15625 -3.90625 -2.890625q-1.78125 2.1875 -3.25 2.984375l1.734375 0l0 5.96875l-4.65625 0l-0.140625 0.875l4.828125 0zm4.5 2.21875q0.234375 0.484375 0.765625 0.921875q0.84375 -0.71875 0.953125 -0.921875l-1.71875 0zm17.96875 -12.53125q0.53125 -1.34375 1.21875 -3.765625l2.671875 0.71875q1.171875 1.1875 -0.1875 1.375q-0.453125 1.140625 -0.65625 1.671875l11.484375 0l0 2.78125l-12.671875 0q-1.375 2.6875 -1.515625 2.84375l2.59375 0l0 -3.0l2.3125 0q2.046875 0.25 0.5625 1.3125l0 1.6875l6.28125 0l0 9.59375q0 2.0 -2.0 2.0l-2.203125 0l-0.4375 -2.78125l1.890625 0q0 0.125 -0.125 0.125l0 -6.15625l-3.40625 0l0 10.6875l-2.875 0l0 -10.6875l-3.21875 0l0 8.71875l-2.875 0l0 -7.3125q-0.859375 0.921875 -3.1875 2.421875l-1.90625 -2.59375q4.75 -2.9375 6.90625 -6.859375l-5.84375 0l0 -2.78125l7.1875 0zm28.78125 4.375l0 0.21875l6.46875 0l0 2.5l-15.90625 0l0 -2.5l6.5625 0l0 -0.21875l-1.75 0l-2.65625 0l0 -4.65625l11.5 0l0 4.65625l-4.21875 0zm-4.6875 -2.125l6.3125 0l0 -0.40625l-6.3125 0l0 0.40625zm9.5625 13.28125l-12.71875 0l0 -8.3125l12.71875 0l0 8.3125zm-10.125 -2.125l7.53125 0l0 -4.0625l-7.53125 0l0 4.0625zm0.125 0.0625l0 -4.28125l7.09375 0l0 4.28125l-7.09375 0zm2.59375 -2.125l1.90625 0l0 -0.03125l-1.90625 0l0 0.03125zm-6.5625 6.90625l0 0.9375l-2.875 0l0 -22.1875l20.875 0l0 22.0l-2.875 0l0 -0.75l-15.125 0zm15.125 -18.46875l-15.125 0l0 15.6875l15.125 0l0 -15.6875zm16.71875 13.65625q-4.4375 3.828125 -9.953125 5.484375l-1.203125 -3.1875q5.390625 -1.53125 8.84375 -4.5q-3.015625 -3.265625 -4.078125 -7.703125l-4.609375 0l0 -2.78125l9.0 0l0 -3.5625l2.609375 0q2.171875 0.4375 0.546875 1.515625l0 2.046875l9.09375 0l0 2.78125l-4.484375 0q-0.703125 4.125 -3.671875 7.703125q2.828125 2.5 8.6875 4.015625l-1.1875 3.1875q-5.328125 -1.359375 -9.59375 -5.0zm-0.109375 -4.421875q2.359375 -2.828125 2.875 -5.484375l-6.109375 0q0.4375 2.453125 3.234375 5.484375z" fill-rule="nonzero"/><path fill="#666666" d="m44.06816 198.811l3.15625 0l0 3.0625l-3.15625 0l0 -3.0625zm24.21875 -8.234375l-6.484375 2.890625q-0.1875 1.375 -1.34375 0.21875l-1.09375 -2.671875l1.484375 -0.421875l0 -7.703125l2.40625 0.71875q2.9375 -0.4375 6.140625 -1.609375l1.046875 2.40625q0.75 2.015625 -1.296875 0.90625q-3.03125 0.625 -5.421875 0.9375l0 3.4375q1.546875 -0.578125 2.984375 -1.265625q-0.03125 -0.046875 -1.71875 -1.71875l2.28125 -1.71875q2.25 1.90625 3.9375 4.71875l-2.40625 1.703125l-0.515625 -0.828125zm7.078125 -4.640625q0.1875 6.671875 -7.046875 7.9375l-0.984375 -2.953125q5.125 -0.671875 5.0625 -4.984375l-2.078125 0l0 -2.78125l10.125 0l-0.3125 6.25q-0.21875 3.5625 -2.46875 3.5625l-2.671875 0l-0.4375 -2.78125l2.171875 0q0.296875 0 0.34375 -0.390625l0.328125 -3.859375l-2.03125 0zm3.171875 7.25l0 10.65625l-2.875 0l0 -0.84375l-10.8125 0l0 1.3125l-2.875 0l0 -11.125l16.5625 0zm-2.875 3.65625l0 -1.15625l-3.96875 0l0 1.15625l3.96875 0zm0 2.5l-3.96875 0l0 1.15625l3.96875 0l0 -1.15625zm-6.84375 -3.65625l-3.96875 0l0 1.15625l3.96875 0l0 -1.15625zm0 3.65625l-3.96875 0l0 1.15625l3.96875 0l0 -1.15625zm18.28125 -14.25l0 -2.78125l13.9375 0l0 2.78125l-13.9375 0zm17.875 0.59375l0 2.78125l-21.8125 0l0 -2.78125l21.8125 0zm-3.9375 3.375l0 2.78125l-13.9375 0l0 -2.78125l13.9375 0zm0 3.375l0 2.78125l-13.9375 0l0 -2.78125l13.9375 0zm0.9375 3.28125l0 8.3125l-3.15625 0l0 -1.03125l-9.59375 0l0 1.40625l-3.15625 0l0 -8.6875l15.90625 0zm-3.15625 2.78125l-9.59375 0l0 1.71875l9.59375 0l0 -1.71875zm23.34375 -9.890625q-0.234375 1.015625 -0.734375 2.234375l7.828125 0l0 2.78125l-2.90625 0q-0.59375 2.875 -1.765625 4.75q0.78125 0.421875 4.40625 2.875l-1.90625 2.71875q-3.125 -2.46875 -4.34375 -3.265625q-2.453125 2.546875 -8.5 3.6875l-0.84375 -2.953125q5.375 -0.90625 6.9375 -2.328125q-0.828125 -0.484375 -1.703125 -0.953125q-0.015625 0.046875 -0.546875 0.953125l-2.46875 -1.15625q1.796875 -3.609375 2.046875 -4.328125l-3.65625 0l0 -2.78125l4.640625 0q0.53125 -1.609375 1.234375 -4.03125l2.078125 0.484375q1.828125 0.609375 0.203125 1.3125zm-7.078125 6.125q-1.734375 0.734375 -2.796875 1.03125l0 6.546875q0 1.8125 -2.0 1.8125l-2.015625 0l-0.546875 -3.0625l1.8125 0q0 0.125 -0.125 0.125l0 -4.65625q-0.21875 0.078125 -0.90625 0.21875q-0.390625 1.1875 -1.3125 -0.03125l-0.609375 -2.703125q1.9375 -0.265625 2.828125 -0.453125l0 -4.4375l-2.4375 0l0 -2.78125l2.4375 0l0 -4.5l2.3125 0q2.046875 0.25 0.5625 1.3125l0 3.1875l2.25 0l0 2.78125l-2.25 0l0 3.84375q0.5625 -0.140625 2.203125 -0.8125l0.59375 2.578125zm13.609375 -4.484375l-2.875 0l0 -2.90625l-8.5625 0l0 2.90625l-2.875 0l0 -5.6875l5.625 0l0 -2.90625l2.3125 0q2.046875 0.25 0.5625 1.3125l0 1.59375l5.8125 0l0 5.6875zm-9.0 5.53125q1.421875 0.65625 2.421875 1.25q1.09375 -1.828125 1.359375 -3.40625l-2.890625 0q-0.453125 1.296875 -0.890625 2.15625zm28.296875 4.0625q2.671875 1.328125 5.78125 1.796875l-1.1875 2.53125q-3.46875 -0.4375 -6.65625 -2.5625l2.0625 -1.765625zm-3.140625 1.0q2.296875 1.15625 -0.34375 1.390625q-1.9375 1.375 -4.9375 2.15625l-1.359375 -2.40625q3.28125 -0.796875 5.15625 -2.046875l1.484375 0.90625zm-0.8125 -10.671875q2.6875 -0.796875 2.6875 -1.890625l-1.3125 0l0 -2.125l2.71875 0l0 -0.3125l-0.546875 0l-0.875 1.3125l-1.953125 -1.296875q1.15625 -1.84375 1.625 -3.578125l1.671875 0.125q2.34375 0.59375 0.328125 1.359375l0 -0.046875l-0.25 0l0 -1.96875l1.75 0q2.046875 0.25 0.5625 1.3125l0 0.65625l2.34375 0l0 2.125l-2.34375 0l0 0.3125l3.0 0l0 2.125l-2.15625 0l0 1.09375q-0.03125 0 0.15625 -0.03125l0.1875 0q0 0.015625 -0.015625 0.015625l0.28125 -1.4375l2.1875 0.515625l-0.265625 1.484375q-0.265625 1.546875 -1.71875 1.546875l-1.21875 0q-1.90625 0 -1.90625 -1.90625l0 -1.28125l0.0625 0q0 2.765625 -4.1875 4.15625l-0.8125 -2.265625zm-2.65625 -4.328125l-0.546875 0l-0.875 1.3125l-1.953125 -1.296875q1.328125 -2.015625 1.578125 -3.6875l1.53125 0.140625q2.390625 0.53125 0.515625 1.34375l-0.015625 0.0625l-0.234375 0l0 -1.96875l1.75 0q2.046875 0.25 0.5625 1.3125l0 0.65625l1.875 0l0 2.125l-1.875 0l0 0.3125l2.0625 0l0 2.125l-1.21875 0l0 0l1.6875 -0.84375l0 2.53125l-2.78125 1.296875q-1.109375 1.78125 -1.390625 -0.1875l-0.515625 -1.640625l0.6875 -0.234375l0 -0.921875l0.0625 0q0 2.921875 -3.859375 4.5625l-0.953125 -2.234375q2.5 -1.09375 2.5 -2.328125l-1.6875 0l0 -2.125l3.09375 0l0 -0.3125zm10.0 5.5625l0 9.4375l-11.03125 0l0 -9.4375l11.03125 0zm-8.4375 2.125l0 0.3125l5.84375 0l0 -0.3125l-5.84375 0zm-11.125 -11.21875l6.15625 0l0 2.78125l-6.15625 0l0 -2.78125zm-0.9375 3.375l7.46875 0l0 2.78125l-7.46875 0l0 -2.78125zm0.9375 3.375l6.15625 0l0 2.78125l-6.15625 0l0 -2.78125zm0 3.375l6.15625 0l0 2.78125l-6.15625 0l0 -2.78125zm2.40625 8.25l1.625 0l0 -2.375l-1.625 0l0 2.375zm4.21875 3.4375l-2.59375 0l0 -0.9375l-1.625 0l0 1.3125l-2.59375 0l0 -8.6875l6.8125 0l0 8.3125zm4.5 -8.15625l0 0.3125l5.84375 0l0 -0.3125l-5.84375 0zm0 2.75l5.84375 0l0 -0.3125l-5.84375 0l0 0.3125z" fill-rule="nonzero"/><path fill="#666666" d="m44.06816 247.931l3.15625 0l0 3.0625l-3.15625 0l0 -3.0625zm28.3125 -1.8125q0.40625 0.65625 1.234375 1.296875q1.140625 -1.0 1.328125 -1.296875l-2.5625 0zm8.546875 7.0q-4.46875 -0.734375 -7.265625 -2.3125q-2.75 1.84375 -7.59375 2.6875l-0.875 -2.640625q4.5 -0.828125 6.15625 -1.828125q-1.03125 -0.84375 -2.0625 -2.90625l-2.53125 0l0 -2.5l5.25 0l0 -1.25l-2.46875 0l0 0.84375l-2.875 0l0 -10.5625l2.140625 0.359375l2.65625 -0.953125l0.75 1.640625q0.90625 2.03125 -0.984375 1.1875l-1.6875 0.359375l0 1.0625l2.53125 0l0 2.5l-2.53125 0l0 1.0625l2.46875 0l0 -8.90625l2.3125 0q2.046875 0.25 0.5625 1.3125l0 7.59375l2.5625 0l0 -1.0625l-2.53125 0l0 -2.5l2.53125 0l0 -1.15625l-2.53125 0l0 -2.5l5.40625 0l0 10.5625l-2.875 0l0 -0.84375l-2.5625 0l0 1.25l1.671875 0l0.484375 -0.734375l1.84375 1.109375q2.015625 1.5625 -0.1875 1.5625q-1.203125 1.984375 -2.8125 3.3125q1.546875 0.671875 5.890625 1.203125l-0.84375 3.046875zm-15.984375 -14.875l0 3.0l1.96875 -0.75l0 2.828125l-1.96875 0.84375l0 7.078125q0 2.0 -1.8125 2.0l-2.390625 0l-0.4375 -2.78125l1.890625 0q0 0.125 -0.125 0.125l0 -5.359375l-1.265625 0.5q-0.859375 2.125 -1.53125 -0.359375l-0.59375 -2.140625l3.390625 -1.0625l0 -3.921875l-2.90625 0l0 -2.78125l2.90625 0l0 -4.40625l2.3125 0q2.046875 0.25 0.5625 1.3125l0 3.09375l2.0625 0l0 2.78125l-2.0625 0zm26.921875 13.796875q-1.5 -1.625 -3.78125 -3.109375l0.734375 -0.9375l-5.84375 0l0 -2.5l14.15625 0l0 -0.40625l-0.90625 0l-1.90625 0l0 -5.6875l10.0 0l0 5.6875l-4.3125 0l0 0.40625l5.4375 0l0 2.5l-5.4375 0l0 3.34375q0 2.0 -2.0 2.0l-3.046875 0l-0.4375 -2.78125l2.734375 0q0 0.125 -0.125 0.125l0 -2.6875l-5.140625 0q0.234375 0.140625 1.59375 1.609375l-1.71875 2.4375zm5.328125 -9.453125l4.25 0l0 -0.6875l-4.25 0l0 0.6875zm-13.09375 -0.6875l0 -2.5l9.8125 0l0 2.5l-3.375 0l0 0.546875l3.625 -0.265625l0.15625 2.28125l-8.515625 0.953125q-0.203125 1.53125 -1.375 0.0625l-0.765625 -2.578125l4.0 -0.1875l0 -0.8125l-3.5625 0zm17.875 -10.46875l0 7.9375l-16.0 0l0 -2.5l13.125 0l0 -0.21875l-12.84375 0l0 -2.5l12.84375 0l0 -0.21875l-13.125 0l0 -2.5l16.0 0zm11.21875 22.359375q-2.578125 -2.921875 -5.40625 -4.765625l2.0 -2.65625q3.453125 2.046875 5.75 4.6875l-2.34375 2.734375zm18.4375 -15.546875l-1.8125 0l0 1.09375q0 8.078125 -5.0625 13.546875l-2.328125 -2.0625q4.515625 -5.109375 4.515625 -11.578125l0 -1.0l-3.46875 0l0 -2.78125l3.46875 0l0 -4.21875l2.3125 0q2.046875 0.25 0.5625 1.3125l0 2.90625l4.6875 0l0 9.40625q0 3.84375 -0.59375 5.34375q-0.796875 1.90625 -3.1875 1.90625l-1.953125 0l-0.28125 -3.0625l2.046875 0q0.578125 0 0.75 -0.515625q0.34375 -0.859375 0.34375 -3.390625l0 -6.90625zm3.46875 -3.8125l9.25 0l0 17.03125l-2.875 0l0 -1.125l-3.5 0l0 1.5l-2.875 0l0 -17.40625zm2.875 2.78125l0 10.34375l3.5 0l0 -10.34375l-3.5 0zm29.515625 15.453125q-7.859375 -4.078125 -9.28125 -10.203125q-1.546875 7.171875 -9.71875 10.734375l-1.59375 -3.046875q8.375 -3.46875 9.046875 -13.3125l1.1875 0.078125l0 -1.953125l-4.875 0l0 -2.78125l8.03125 0l0 3.875q0 8.703125 9.0 13.390625l-1.796875 3.21875zm10.5 -3.984375q-1.4375 2.078125 -5.0 4.453125l-1.9375 -2.484375q3.484375 -2.21875 4.9375 -3.9375q-0.09375 0.1875 -1.21875 -0.515625l-0.34375 1.03125l-2.703125 -1.140625q1.453125 -4.0625 2.0 -7.375l-2.25 0l0 -2.78125l2.703125 0q0.296875 -1.828125 0.640625 -4.5625l2.484375 0.34375q1.515625 0.3125 0.296875 1.328125q-0.25 1.703125 -0.515625 2.890625l1.359375 0l0.390625 -0.671875l2.640625 1.671875l-0.484375 0.78125q-0.46875 5.6875 -1.5625 8.21875q1.015625 0.796875 2.765625 2.3125l-1.796875 2.765625q-1.90625 -1.921875 -2.40625 -2.328125zm10.421875 2.09375q0 2.1875 -1.71875 2.1875l-2.75 0l-0.6875 -3.0625l2.40625 0q0 0.125 -0.125 0.125l0 -6.0625l-4.96875 0l0 -2.78125l4.96875 0l0 -4.015625l0.9375 0.140625l1.359375 -1.78125l-6.609375 0l0 -2.78125l8.640625 0l0.578125 -0.578125l1.9375 1.921875q1.453125 1.21875 -0.484375 1.421875l-3.484375 3.46875l0 2.203125l4.96875 0l0 2.78125l-4.96875 0l0 6.8125zm-12.84375 -7.21875q0.484375 0.21875 1.3125 0.75q0.796875 -2.078125 1.109375 -5.59375l-1.390625 0q-0.859375 4.203125 -1.03125 4.84375zm23.796875 6.953125q4.703125 -1.125 6.78125 -3.046875q-1.703125 -1.953125 -2.375 -3.65625q-1.171875 4.828125 -6.796875 9.0l-1.78125 -2.734375q6.015625 -3.984375 6.703125 -12.390625l-6.140625 0l0 -2.78125l6.390625 0l0.09375 -3.96875l2.40625 0.125q2.03125 0.25 0.53125 1.328125l-0.140625 2.515625l11.5 0l0 2.78125l-11.6875 0q-0.125 1.0625 -0.25 2.0l6.453125 0l0.546875 -0.546875l1.84375 1.5q1.375 1.09375 -0.140625 1.3125q-1.234375 3.359375 -2.90625 5.4375q2.65625 1.796875 6.65625 2.75l-0.953125 3.09375q-4.21875 -0.859375 -7.8125 -3.671875q-2.5 2.3125 -7.953125 4.0l-0.96875 -3.046875zm6.859375 -8.046875q0.3125 0.9375 2.03125 3.03125q1.0625 -1.25 1.65625 -3.03125l-3.6875 0z" fill-rule="nonzero"/><path fill="#666666" d="m44.06816 297.051l3.15625 0l0 3.0625l-3.15625 0l0 -3.0625zm31.546875 -11.71875q-1.015625 -0.625 -2.40625 -2.390625q-1.078125 1.75 -2.015625 2.390625l4.421875 0zm3.953125 17.265625q-2.046875 -2.046875 -3.59375 -3.171875q-0.609375 1.21875 -2.390625 3.234375l-2.09375 -1.796875q2.359375 -2.359375 3.671875 -6.515625l1.96875 0.375q2.328125 0.703125 0.28125 1.515625q-0.125 0.375 -0.3125 0.734375q1.6875 0.90625 4.015625 2.796875l-1.546875 2.828125zm-8.0625 -8.0625q2.328125 0.703125 0.25 1.53125q-0.390625 0.953125 -0.734375 1.59375q0.859375 0.53125 2.03125 1.703125l-1.515625 2.28125q-1.328125 -1.46875 -1.78125 -1.78125q-0.8125 1.296875 -2.796875 2.921875l-1.609375 -2.34375q2.703125 -2.078125 4.203125 -6.265625l1.953125 0.359375zm6.03125 -2.453125l0 -1.4375l-1.15625 0l0 1.4375l1.15625 0zm2.59375 2.5l-6.34375 0l0 -6.4375l6.34375 0l0 6.4375zm-6.65625 0l-6.25 0l0 -6.4375l6.25 0l0 6.4375zm-2.59375 -2.5l0 -1.4375l-1.0625 0l0 1.4375l1.0625 0zm-5.484375 -6.28125q4.671875 -2.59375 6.640625 -6.109375l2.0 0.109375q2.34375 0.21875 1.0 1.21875q2.0625 2.234375 6.859375 3.953125l-1.234375 2.890625q-1.90625 -0.640625 -2.5 -1.015625l0 0.984375l-9.25 0l0 -0.8125q-0.34375 0.25 -2.359375 1.515625l-1.15625 -2.734375zm-0.828125 1.5625l0 2.046875q1.734375 1.21875 2.984375 2.9375l-1.453125 2.921875q-1.375 -2.0625 -1.53125 -2.1875l0 9.46875l-2.59375 0l0.5 -10.0625q-0.40625 2.6875 -2.5 5.15625l-1.671875 -2.65625q3.03125 -4.015625 3.515625 -7.625l-2.75 0l0 -2.78125l2.90625 0l0 -4.78125l2.03125 0q2.046875 0.25 0.5625 1.3125l0 3.46875l1.875 0l0 2.78125l-1.875 0zm24.1875 -7.375q2.046875 0.25 0.5625 1.3125l0 2.625l1.359375 0l0.546875 -0.5625l2.234375 1.9375l-0.78125 0.578125q-1.484375 2.78125 -3.359375 4.828125l0 -0.15625q1.703125 0.640625 3.921875 2.171875l-1.703125 2.828125q-1.53125 -1.546875 -2.21875 -1.96875l0 8.96875l-2.875 0l0 -8.953125q-0.484375 0.484375 -2.71875 2.09375l-1.25 -2.921875q4.65625 -2.984375 6.34375 -6.0625l-5.46875 0l0 -2.78125l3.09375 0l0 -3.9375l2.3125 0zm9.875 14.78125l-0.6875 0l0 0.34375q0 5.828125 -7.296875 7.53125l-0.96875 -2.921875q5.390625 -1.34375 5.390625 -4.421875l0 -0.53125l-0.53125 0l-1.4375 0l0 -13.9375l10.9375 0l0 13.9375l-2.53125 0l0 4.28125q0 0.25 0.15625 0.25l0.84375 0q0.046875 0 0.0625 -0.140625l0.375 -2.21875l2.8125 0.703125q-0.34375 4.4375 -2.78125 4.4375l-2.0625 0q-2.28125 0 -2.28125 -2.1875l0 -5.125zm-2.65625 -10.28125l5.1875 0l0 -0.875l-5.1875 0l0 0.875zm0 3.5625l5.1875 0l0 -0.78125l-5.1875 0l0 0.78125zm0 3.9375l5.1875 0l0 -1.15625l-5.1875 0l0 1.15625zm18.078125 5.8125q-1.4375 2.078125 -5.0 4.453125l-1.9375 -2.484375q3.484375 -2.21875 4.9375 -3.9375q-0.09375 0.1875 -1.21875 -0.515625l-0.34375 1.03125l-2.703125 -1.140625q1.453125 -4.0625 2.0 -7.375l-2.25 0l0 -2.78125l2.703125 0q0.296875 -1.828125 0.640625 -4.5625l2.484375 0.34375q1.515625 0.3125 0.296875 1.328125q-0.25 1.703125 -0.515625 2.890625l1.359375 0l0.390625 -0.671875l2.640625 1.671875l-0.484375 0.78125q-0.46875 5.6875 -1.5625 8.21875q1.015625 0.796875 2.765625 2.3125l-1.796875 2.765625q-1.90625 -1.921875 -2.40625 -2.328125zm10.421875 2.09375q0 2.1875 -1.71875 2.1875l-2.75 0l-0.6875 -3.0625l2.40625 0q0 0.125 -0.125 0.125l0 -6.0625l-4.96875 0l0 -2.78125l4.96875 0l0 -4.015625l0.9375 0.140625l1.359375 -1.78125l-6.609375 0l0 -2.78125l8.640625 0l0.578125 -0.578125l1.9375 1.921875q1.453125 1.21875 -0.484375 1.421875l-3.484375 3.46875l0 2.203125l4.96875 0l0 2.78125l-4.96875 0l0 6.8125zm-12.84375 -7.21875q0.484375 0.21875 1.3125 0.75q0.796875 -2.078125 1.109375 -5.59375l-1.390625 0q-0.859375 4.203125 -1.03125 4.84375zm23.796875 6.953125q4.703125 -1.125 6.78125 -3.046875q-1.703125 -1.953125 -2.375 -3.65625q-1.171875 4.828125 -6.796875 9.0l-1.78125 -2.734375q6.015625 -3.984375 6.703125 -12.390625l-6.140625 0l0 -2.78125l6.390625 0l0.09375 -3.96875l2.40625 0.125q2.03125 0.25 0.53125 1.328125l-0.140625 2.515625l11.5 0l0 2.78125l-11.6875 0q-0.125 1.0625 -0.25 2.0l6.453125 0l0.546875 -0.546875l1.84375 1.5q1.375 1.09375 -0.140625 1.3125q-1.234375 3.359375 -2.90625 5.4375q2.65625 1.796875 6.65625 2.75l-0.953125 3.09375q-4.21875 -0.859375 -7.8125 -3.671875q-2.5 2.3125 -7.953125 4.0l-0.96875 -3.046875zm6.859375 -8.046875q0.3125 0.9375 2.03125 3.03125q1.0625 -1.25 1.65625 -3.03125l-3.6875 0zm12.546875 8.28125q3.96875 -1.734375 5.34375 -6.953125l2.6875 0.71875q1.171875 1.1875 -0.1875 1.375l-0.4375 1.140625q1.484375 1.71875 2.765625 2.125l0 -5.1875l-9.1875 0l0 -2.78125l21.25 0l0 2.78125l-9.1875 0l0 1.15625l6.75 0l0 2.78125l-6.75 0l0 2.0l9.4375 0l-0.734375 2.78125l-7.890625 0q-5.3125 0 -7.734375 -3.109375q-1.578125 2.4375 -4.453125 3.8125l-1.671875 -2.640625zm15.984375 -15.84375l0 -0.78125l-9.03125 0l0 0.78125l9.03125 0zm2.875 5.78125l-14.78125 0l0 -9.0625l14.78125 0l0 9.0625zm-2.875 -2.5l0 -0.78125l-9.03125 0l0 0.78125l9.03125 0zm17.90625 0.84375q-2.78125 3.0 -8.90625 5.171875l-0.96875 -2.90625q7.140625 -2.734375 9.796875 -6.515625l-9.203125 0l0 -2.78125l21.25 0l0 2.78125l-8.484375 0l-0.609375 0.953125l0 7.296875l-2.875 0l0 -4.0zm6.1875 10.5l0 -3.6875l-9.5 0l0 3.6875l9.5 0zm-9.5 3.90625l-2.875 0l0 -10.375l15.25 0l0 10.09375l-2.875 0l0 -0.84375l-9.5 0l0 1.125zm7.546875 -16.9375q4.5625 1.546875 8.28125 4.3125l-1.65625 2.609375q-4.125 -2.890625 -8.203125 -4.5l1.578125 -2.421875zm13.953125 1.84375l1.5625 0.359375q0.3125 -0.3125 1.09375 -1.765625l-5.75 0l0 -2.78125l7.015625 0q0.59375 -1.4375 1.09375 -3.53125l2.703125 0.96875q1.15625 1.171875 -0.15625 1.359375q-0.125 0.5625 -0.4375 1.203125l10.5625 0l0 2.78125l-11.796875 0q-1.015625 2.28125 -3.015625 4.921875l0 11.390625l-2.875 0l0 -8.578125q-0.40625 0.421875 -3.203125 2.046875l-1.359375 -3.125q2.984375 -1.375 4.5625 -3.125l0 -2.125zm11.125 -1.09375q2.046875 0.25 0.5625 1.3125l0 2.90625l4.78125 0l0 2.78125l-4.78125 0l0 5.1875l6.1875 0l0 2.78125l-15.15625 0l0 -2.78125l6.09375 0l0 -5.1875l-5.15625 0l0 -2.78125l5.15625 0l0 -4.21875l2.3125 0zm25.59375 -4.03125l4.21875 0l0 9.25l-4.125 0l0 0.625q0 0.515625 0.625 1.546875l2.84375 -2.84375l1.75 2.0q0.28125 1.453125 -0.84375 1.078125l-2.296875 1.78125q1.140625 1.5 4.0 3.296875l-1.53125 2.75q-3.453125 -2.21875 -4.546875 -4.15625l0 2.796875q0 1.90625 -1.625 1.90625l-2.171875 0l-0.625 -2.5l1.953125 0q0 0.125 -0.125 0.125l0 -8.40625l-1.5625 0l-2.46875 0l0 -9.25l3.65625 0l0.578125 -2.609375l2.5 0.46875q2.109375 0.796875 0.125 1.453125l-0.328125 0.6875zm-2.015625 10.84375l-0.328125 0.8125q-0.09375 5.453125 -4.734375 8.046875l-1.875 -2.171875q3.65625 -2.234375 3.796875 -4.8125l-2.40625 0l0 -2.5l3.015625 0l0.375 -0.375l2.15625 1.0zm-8.21875 -10.71875q-1.84375 3.0 -2.25 3.5625l0.4375 0.375l2.5 -3.890625l1.96875 1.34375q1.109375 1.125 -0.3125 1.328125q-2.421875 3.578125 -3.25 4.546875l1.140625 -0.109375l-0.546875 -1.09375l2.21875 -1.171875q1.71875 2.1875 2.53125 4.765625l-2.546875 1.125l-0.515625 -1.140625l-1.171875 0.171875l0 10.375l-2.875 0l0 -10.09375l-2.34375 0.140625q-1.09375 1.3125 -1.3125 -0.796875l-0.265625 -1.96875l2.203125 0l0.875 -1.1875l-2.890625 -2.328125l1.453125 -2.1875l0.46875 0.28125q1.59375 -2.484375 2.546875 -4.5l2.21875 1.109375q1.140625 1.140625 -0.28125 1.34375zm-6.109375 17.234375q0.8125 -3.875 0.8125 -6.453125l2.28125 0.25q2.21875 0.5625 0.5 1.296875q0 2.828125 -0.921875 6.3125l-2.671875 -1.40625zm12.40625 -13.984375l5.5625 0l0 -0.875l-5.5625 0l0 0.875zm5.5625 3.375l0 -0.875l-5.5625 0l0 0.875l5.5625 0zm-9.53125 4.046875q0.859375 1.84375 1.203125 4.90625l-2.796875 0.59375q-0.125 -2.125 -0.90625 -4.921875l2.5 -0.578125zm23.968735 4.296875l0 -16.59375l2.609375 0q2.171875 0.4375 0.546875 1.515625l0 4.671875l7.59375 0l0 3.0625l-7.59375 0l0 7.34375l9.75 0l0 3.0625l-21.343735 0l0 -3.0625l8.437485 0z" fill-rule="nonzero"/><path fill="#666666" d="m44.06816 346.171l3.15625 0l0 3.0625l-3.15625 0l0 -3.0625zm35.421875 5.203125q-6.0 -1.34375 -9.140625 -4.046875q-3.34375 2.90625 -10.0625 3.921875l-1.21875 -3.09375q6.671875 -1.109375 8.96875 -2.953125q-2.046875 -2.28125 -3.515625 -5.34375l2.875 -1.234375q1.578125 3.15625 2.71875 4.296875q1.109375 -1.375 2.3125 -4.640625l2.484375 1.296875q1.5625 1.046875 -0.171875 1.4375q-1.140625 2.546875 -2.296875 4.0q2.078125 1.75 8.234375 3.0625l-1.1875 3.296875zm-8.34375 -21.984375q2.171875 0.4375 0.546875 1.515625l0 1.296875l8.8125 0l0 2.78125l-20.6875 0l0 -2.78125l8.71875 0l0 -2.8125l2.609375 0zm-2.84375 6.65625q1.203125 0.8125 -0.46875 1.21875q-2.03125 2.78125 -6.328125 4.609375l-1.625 -2.84375q3.875 -1.671875 6.265625 -4.6875l2.15625 1.703125zm5.609375 -1.546875q2.546875 2.765625 6.390625 4.578125l-2.125 2.796875q-3.75 -2.03125 -6.34375 -5.15625l2.078125 -2.21875zm13.515625 14.25q4.703125 -1.125 6.78125 -3.046875q-1.703125 -1.953125 -2.375 -3.65625q-1.171875 4.828125 -6.796875 9.0l-1.78125 -2.734375q6.015625 -3.984375 6.703125 -12.390625l-6.140625 0l0 -2.78125l6.390625 0l0.09375 -3.96875l2.40625 0.125q2.03125 0.25 0.53125 1.328125l-0.140625 2.515625l11.5 0l0 2.78125l-11.6875 0q-0.125 1.0625 -0.25 2.0l6.453125 0l0.546875 -0.546875l1.84375 1.5q1.375 1.09375 -0.140625 1.3125q-1.234375 3.359375 -2.90625 5.4375q2.65625 1.796875 6.65625 2.75l-0.953125 3.09375q-4.21875 -0.859375 -7.8125 -3.671875q-2.5 2.3125 -7.953125 4.0l-0.96875 -3.046875zm6.859375 -8.046875q0.3125 0.9375 2.03125 3.03125q1.0625 -1.25 1.65625 -3.03125l-3.6875 0zm30.390625 -11.203125q1.703125 0.734375 0.1875 1.484375l-0.59375 2.0625l4.796875 0l0 2.78125l-1.640625 0q-0.4375 4.765625 -1.390625 7.390625q0.90625 1.28125 2.9375 2.359375l-0.859375 3.0q-2.890625 -1.8125 -3.671875 -2.921875q-0.859375 1.1875 -3.828125 3.203125l-1.015625 -3.03125q2.4375 -1.046875 3.25 -2.453125q-1.046875 -2.09375 -1.046875 -4.171875q0.15625 0.140625 -0.75 1.28125l-1.1875 -2.53125q1.9375 -4.359375 2.5625 -8.828125l2.25 0.375zm-18.34375 19.390625l3.171875 -2.28125l0 -3.28125l-2.90625 0l0 -2.78125l5.78125 0l0 6.296875q1.484375 1.484375 4.28125 1.484375l13.3125 0l-1.171875 2.78125l-11.015625 0q-4.796875 0 -6.9375 -2.140625l-2.703125 2.71875l-1.8125 -2.796875zm4.703125 -9.328125q-1.703125 -1.578125 -3.96875 -2.9375l1.4375 -2.421875q2.453125 1.28125 4.109375 2.9375l-1.578125 2.421875zm0.59375 -5.09375q-1.8125 -1.453125 -4.03125 -2.71875l1.484375 -2.21875q2.328125 1.15625 4.015625 2.609375l-1.46875 2.328125zm9.1875 4.265625l-2.8125 0l0 0.5l3.46875 0l0 2.5l-4.25 0l-0.015625 0.21875l3.65625 0l-0.328125 3.921875q-0.21875 2.890625 -2.09375 2.890625l-2.296875 0l-0.46875 -2.5l1.828125 0q0.296875 0 0.34375 -0.390625l0.140625 -1.421875l-1.21875 0q-0.5 2.09375 -2.609375 4.21875l-2.09375 -1.796875q2.234375 -2.125 2.546875 -5.140625l-2.578125 0l0 -2.5l3.375 0l0 -0.5l-0.8125 0l-1.71875 0l0 -7.84375l2.28125 0l0.578125 -2.125l2.40625 0.359375q1.390625 0.84375 0 1.4375l-0.171875 0.328125l2.84375 0l0 7.84375zm-2.59375 -2.625l-2.75 0l0 0.125l2.75 0l0 -0.125zm0 -2.5l0 -0.21875l-2.75 0l0 0.21875l2.75 0zm5.53125 2.21875q0.15625 3.421875 0.53125 4.421875q0.3125 -1.078125 0.5625 -4.421875l-1.09375 0zm27.8125 13.84375q0 1.71875 -1.71875 1.71875l-2.171875 0l-0.625 -2.5l2.046875 0q0 0.125 -0.125 0.125l0 -1.375l-5.5625 0l0 3.75l-2.59375 0l0 -11.875l10.75 0l0 10.15625zm-12.75 -20.0l0 2.78125l-6.71875 0l0 -2.78125l6.71875 0zm-7.84375 5.96875l0 -2.78125l8.96875 0l0 2.78125l-8.96875 0zm7.84375 0.59375l0 2.78125l-6.71875 0l0 -2.78125l6.71875 0zm0 3.375l0 2.78125l-6.71875 0l0 -2.78125l6.71875 0zm0.46875 3.375l0 8.21875l-2.59375 0l0 -0.75l-2.375 0l0 1.125l-2.59375 0l0 -8.59375l7.5625 0zm-2.59375 2.5l-2.375 0l0 2.46875l2.375 0l0 -2.46875zm12.28125 -0.65625l-5.5625 0l0 0.3125l5.5625 0l0 -0.3125zm2.5 -10.9375l0 2.5l-4.21875 0l0 0.5l6.09375 0l0 2.5l-14.3125 0l0 -2.5l5.625 0l0 -0.5l-4.125 0l0 -2.5l4.125 0l0 -0.5l-4.96875 0l0 -2.5l4.96875 0l0 -1.96875l2.03125 0q2.046875 0.25 0.5625 1.3125l0 0.65625l5.34375 0l0 2.5l-5.34375 0l0 0.5l4.21875 0zm-2.5 8.125l-5.5625 0l0 0.3125l5.5625 0l0 -0.3125zm12.21875 10.015625q-2.578125 -2.921875 -5.40625 -4.765625l2.0 -2.65625q3.453125 2.046875 5.75 4.6875l-2.34375 2.734375zm16.796875 -5.109375q-1.4375 2.078125 -5.0 4.453125l-1.9375 -2.484375q3.484375 -2.21875 4.9375 -3.9375q-0.09375 0.1875 -1.21875 -0.515625l-0.34375 1.03125l-2.703125 -1.140625q1.453125 -4.0625 2.0 -7.375l-2.25 0l0 -2.78125l2.703125 0q0.296875 -1.828125 0.640625 -4.5625l2.484375 0.34375q1.515625 0.3125 0.296875 1.328125q-0.25 1.703125 -0.515625 2.890625l1.359375 0l0.390625 -0.671875l2.640625 1.671875l-0.484375 0.78125q-0.46875 5.6875 -1.5625 8.21875q1.015625 0.796875 2.765625 2.3125l-1.796875 2.765625q-1.90625 -1.921875 -2.40625 -2.328125zm10.421875 2.09375q0 2.1875 -1.71875 2.1875l-2.75 0l-0.6875 -3.0625l2.40625 0q0 0.125 -0.125 0.125l0 -6.0625l-4.96875 0l0 -2.78125l4.96875 0l0 -4.015625l0.9375 0.140625l1.359375 -1.78125l-6.609375 0l0 -2.78125l8.640625 0l0.578125 -0.578125l1.9375 1.921875q1.453125 1.21875 -0.484375 1.421875l-3.484375 3.46875l0 2.203125l4.96875 0l0 2.78125l-4.96875 0l0 6.8125zm-12.84375 -7.21875q0.484375 0.21875 1.3125 0.75q0.796875 -2.078125 1.109375 -5.59375l-1.390625 0q-0.859375 4.203125 -1.03125 4.84375zm23.796875 6.953125q4.703125 -1.125 6.78125 -3.046875q-1.703125 -1.953125 -2.375 -3.65625q-1.171875 4.828125 -6.796875 9.0l-1.78125 -2.734375q6.015625 -3.984375 6.703125 -12.390625l-6.140625 0l0 -2.78125l6.390625 0l0.09375 -3.96875l2.40625 0.125q2.03125 0.25 0.53125 1.328125l-0.140625 2.515625l11.5 0l0 2.78125l-11.6875 0q-0.125 1.0625 -0.25 2.0l6.453125 0l0.546875 -0.546875l1.84375 1.5q1.375 1.09375 -0.140625 1.3125q-1.234375 3.359375 -2.90625 5.4375q2.65625 1.796875 6.65625 2.75l-0.953125 3.09375q-4.21875 -0.859375 -7.8125 -3.671875q-2.5 2.3125 -7.953125 4.0l-0.96875 -3.046875zm6.859375 -8.046875q0.3125 0.9375 2.03125 3.03125q1.0625 -1.25 1.65625 -3.03125l-3.6875 0zm22.0 -2.765625l-6.484375 2.890625q-0.1875 1.375 -1.34375 0.21875l-1.09375 -2.671875l1.484375 -0.421875l0 -7.703125l2.40625 0.71875q2.9375 -0.4375 6.140625 -1.609375l1.046875 2.40625q0.75 2.015625 -1.296875 0.90625q-3.03125 0.625 -5.421875 0.9375l0 3.4375q1.546875 -0.578125 2.984375 -1.265625q-0.03125 -0.046875 -1.71875 -1.71875l2.28125 -1.71875q2.25 1.90625 3.9375 4.71875l-2.40625 1.703125l-0.515625 -0.828125zm7.078125 -4.640625q0.1875 6.671875 -7.046875 7.9375l-0.984375 -2.953125q5.125 -0.671875 5.0625 -4.984375l-2.078125 0l0 -2.78125l10.125 0l-0.3125 6.25q-0.21875 3.5625 -2.46875 3.5625l-2.671875 0l-0.4375 -2.78125l2.171875 0q0.296875 0 0.34375 -0.390625l0.328125 -3.859375l-2.03125 0zm3.171875 7.25l0 10.65625l-2.875 0l0 -0.84375l-10.8125 0l0 1.3125l-2.875 0l0 -11.125l16.5625 0zm-2.875 3.65625l0 -1.15625l-3.96875 0l0 1.15625l3.96875 0zm0 2.5l-3.96875 0l0 1.15625l3.96875 0l0 -1.15625zm-6.84375 -3.65625l-3.96875 0l0 1.15625l3.96875 0l0 -1.15625zm0 3.65625l-3.96875 0l0 1.15625l3.96875 0l0 -1.15625zm18.28125 -14.25l0 -2.78125l13.937485 0l0 2.78125l-13.937485 0zm17.874985 0.59375l0 2.78125l-21.812485 0l0 -2.78125l21.812485 0zm-3.9375 3.375l0 2.78125l-13.937485 0l0 -2.78125l13.937485 0zm0 3.375l0 2.78125l-13.937485 0l0 -2.78125l13.937485 0zm0.9375 3.28125l0 8.3125l-3.15625 0l0 -1.03125l-9.593735 0l0 1.40625l-3.15625 0l0 -8.6875l15.906235 0zm-3.15625 2.78125l-9.593735 0l0 1.71875l9.593735 0l0 -1.71875zm23.34375 -9.890625q-0.234375 1.015625 -0.734375 2.234375l7.828125 0l0 2.78125l-2.90625 0q-0.59375 2.875 -1.765625 4.75q0.78125 0.421875 4.40625 2.875l-1.90625 2.71875q-3.125 -2.46875 -4.34375 -3.265625q-2.453125 2.546875 -8.5 3.6875l-0.84375 -2.953125q5.375 -0.90625 6.9375 -2.328125q-0.828125 -0.484375 -1.703125 -0.953125q-0.015625 0.046875 -0.546875 0.953125l-2.46875 -1.15625q1.796875 -3.609375 2.046875 -4.328125l-3.65625 0l0 -2.78125l4.640625 0q0.53125 -1.609375 1.234375 -4.03125l2.078125 0.484375q1.828125 0.609375 0.203125 1.3125zm-7.078125 6.125q-1.734375 0.734375 -2.796875 1.03125l0 6.546875q0 1.8125 -2.0 1.8125l-2.015625 0l-0.546875 -3.0625l1.8125 0q0 0.125 -0.125 0.125l0 -4.65625q-0.21875 0.078125 -0.90625 0.21875q-0.390625 1.1875 -1.3125 -0.03125l-0.609375 -2.703125q1.9375 -0.265625 2.828125 -0.453125l0 -4.4375l-2.4375 0l0 -2.78125l2.4375 0l0 -4.5l2.3125 0q2.046875 0.25 0.5625 1.3125l0 3.1875l2.25 0l0 2.78125l-2.25 0l0 3.84375q0.5625 -0.140625 2.203125 -0.8125l0.59375 2.578125zm13.609375 -4.484375l-2.875 0l0 -2.90625l-8.5625 0l0 2.90625l-2.875 0l0 -5.6875l5.625 0l0 -2.90625l2.3125 0q2.046875 0.25 0.5625 1.3125l0 1.59375l5.8125 0l0 5.6875zm-9.0 5.53125q1.421875 0.65625 2.421875 1.25q1.09375 -1.828125 1.359375 -3.40625l-2.890625 0q-0.453125 1.296875 -0.890625 2.15625zm28.296875 4.0625q2.671875 1.328125 5.78125 1.796875l-1.1875 2.53125q-3.46875 -0.4375 -6.65625 -2.5625l2.0625 -1.765625zm-3.140625 1.0q2.296875 1.15625 -0.34375 1.390625q-1.9375 1.375 -4.9375 2.15625l-1.359375 -2.40625q3.28125 -0.796875 5.15625 -2.046875l1.484375 0.90625zm-0.8125 -10.671875q2.6875 -0.796875 2.6875 -1.890625l-1.3125 0l0 -2.125l2.71875 0l0 -0.3125l-0.546875 0l-0.875 1.3125l-1.953125 -1.296875q1.15625 -1.84375 1.625 -3.578125l1.671875 0.125q2.34375 0.59375 0.328125 1.359375l0 -0.046875l-0.25 0l0 -1.96875l1.75 0q2.046875 0.25 0.5625 1.3125l0 0.65625l2.34375 0l0 2.125l-2.34375 0l0 0.3125l3.0 0l0 2.125l-2.15625 0l0 1.09375q-0.03125 0 0.15625 -0.03125l0.1875 0q0 0.015625 -0.015625 0.015625l0.28125 -1.4375l2.1875 0.515625l-0.265625 1.484375q-0.265625 1.546875 -1.71875 1.546875l-1.21875 0q-1.90625 0 -1.90625 -1.90625l0 -1.28125l0.0625 0q0 2.765625 -4.1875 4.15625l-0.8125 -2.265625zm-2.65625 -4.328125l-0.546875 0l-0.875 1.3125l-1.953125 -1.296875q1.328125 -2.015625 1.578125 -3.6875l1.53125 0.140625q2.390625 0.53125 0.515625 1.34375l-0.015625 0.0625l-0.234375 0l0 -1.96875l1.75 0q2.046875 0.25 0.5625 1.3125l0 0.65625l1.875 0l0 2.125l-1.875 0l0 0.3125l2.0625 0l0 2.125l-1.21875 0l0 0l1.6875 -0.84375l0 2.53125l-2.78125 1.296875q-1.109375 1.78125 -1.390625 -0.1875l-0.515625 -1.640625l0.6875 -0.234375l0 -0.921875l0.0625 0q0 2.921875 -3.859375 4.5625l-0.953125 -2.234375q2.5 -1.09375 2.5 -2.328125l-1.6875 0l0 -2.125l3.09375 0l0 -0.3125zm10.0 5.5625l0 9.4375l-11.03125 0l0 -9.4375l11.03125 0zm-8.4375 2.125l0 0.3125l5.84375 0l0 -0.3125l-5.84375 0zm-11.125 -11.21875l6.15625 0l0 2.78125l-6.15625 0l0 -2.78125zm-0.9375 3.375l7.46875 0l0 2.78125l-7.46875 0l0 -2.78125zm0.9375 3.375l6.15625 0l0 2.78125l-6.15625 0l0 -2.78125zm0 3.375l6.15625 0l0 2.78125l-6.15625 0l0 -2.78125zm2.40625 8.25l1.625 0l0 -2.375l-1.625 0l0 2.375zm4.21875 3.4375l-2.59375 0l0 -0.9375l-1.625 0l0 1.3125l-2.59375 0l0 -8.6875l6.8125 0l0 8.3125zm4.5 -8.15625l0 0.3125l5.84375 0l0 -0.3125l-5.84375 0zm0 2.75l5.84375 0l0 -0.3125l-5.84375 0l0 0.3125zm22.0 5.125q-3.109375 0 -5.296875 -2.03125q-0.84375 0.984375 -3.8125 2.640625l-1.09375 -3.421875q1.46875 -0.40625 3.328125 -1.609375l0 -5.328125l-2.90625 0l0 -2.78125l5.78125 0l0 8.0625q1.5625 1.40625 4.375 1.40625l12.21875 0l-0.546875 3.0625l-12.046875 0zm1.15625 -19.234375q2.65625 0.640625 3.09375 0.8125l0.328125 -0.234375l-7.609375 0l0 -2.78125l11.046875 0l0.640625 -0.375l1.6875 1.234375q1.5 1.25 -0.609375 1.4375l-2.8125 1.875l1.0625 0.484375l-0.78125 0.78125l3.515625 0l0 11.1875q0 1.8125 -1.8125 1.8125l-2.53125 0l-0.15625 -2.78125l1.75 0q0 0.125 -0.125 0.125l0 -1.28125l-2.5625 0l0 3.65625l-2.875 0l0 -3.65625l-2.375 0l0 4.03125l-2.875 0l0 -13.09375l4.875 0q-1.53125 -0.609375 -3.109375 -1.015625l2.234375 -2.21875zm4.125 5.734375l0 0.78125l2.5625 0l0 -0.78125l-2.5625 0zm-5.25 0l0 0.78125l2.375 0l0 -0.78125l-2.375 0zm2.375 3.28125l-2.375 0l0 0.78125l2.375 0l0 -0.78125zm5.4375 0l-2.5625 0l0 0.78125l2.5625 0l0 -0.78125zm-14.890625 -11.5625q3.0 1.890625 4.203125 3.8125l-2.25 2.390625q-1.828125 -2.28125 -3.875 -3.875l1.921875 -2.328125zm21.359375 11.84375l0 -2.78125l4.875 0l0 -2.84375l-0.40625 0q-0.75 1.5 -2.671875 3.1875l-2.125 -2.125q3.09375 -2.59375 4.3125 -7.53125l2.421875 0.71875q1.671875 0.84375 -0.078125 1.421875q-0.296875 0.921875 -0.609375 1.546875l5.59375 0l0 2.78125l-3.5625 0l0 2.84375l4.6875 0l0 2.78125l-4.6875 0q0 0.75 -0.140625 1.703125q1.75 1.265625 4.78125 4.609375l-1.9375 2.640625q-3.015625 -3.78125 -3.640625 -4.453125q-0.828125 2.640625 -5.109375 5.421875l-1.984375 -2.546875q5.15625 -2.46875 5.15625 -7.375l-4.875 0zm20.96875 -9.0625l0 17.875l-2.875 0l0 -1.5l-2.9375 0l0 1.78125l-2.875 0l0 -18.15625l8.6875 0zm-2.875 2.78125l-2.9375 0l0 10.8125l2.9375 0l0 -10.8125z" fill-rule="nonzero"/><path fill="#666666" d="m44.06816 395.291l3.15625 0l0 3.0625l-3.15625 0l0 -3.0625zm23.703125 -4.359375q2.796875 2.578125 4.53125 5.953125l-2.703125 1.890625q-0.625 -1.234375 -1.15625 -2.03125q-3.5 0.9375 -7.1875 1.875q-0.203125 1.984375 -1.375 0.21875l-1.203125 -2.96875l1.984375 -0.3125l0 -16.015625l9.8125 0l0 11.78125l-6.9375 0l0 3.75l3.328125 -0.734375q-0.28125 -0.390625 -1.484375 -1.71875l2.390625 -1.6875zm-0.171875 -8.609375l-4.0625 0l0 1.71875l4.0625 0l0 -1.71875zm0 4.5l-4.0625 0l0 1.71875l4.0625 0l0 -1.71875zm7.0 -4.5l0 18.1875l-2.875 0l0 -20.96875l8.78125 0l0 15.6875q0 2.0 -2.0 2.0l-2.734375 0l-0.734375 -2.78125l2.71875 0q0 0.125 -0.125 0.125l0 -12.25l-3.03125 0zm20.8125 15.421875q-1.375 -2.40625 -2.46875 -3.625l2.421875 -1.71875q1.078125 1.21875 2.5625 3.515625l-2.515625 1.828125zm3.8125 0.078125q0 0.125 -0.125 0.125l0 -5.03125l-7.875 0l0 -2.78125l7.875 0l0 -1.4375l-7.90625 0l0 8.90625l-2.59375 0l0 -0.75l-2.1875 0l0 1.6875l-2.59375 0l0 -18.25l7.375 0l0 5.625l4.71875 0l0 -1.71875l-4.03125 0l0 -2.78125l4.03125 0l0 -3.1875l2.3125 0q2.046875 0.25 0.5625 1.3125l0 1.875l4.78125 0l0 2.78125l-4.78125 0l0 1.71875l6.5625 0l0 2.78125l-3.375 0l0 1.4375l2.8125 0l0 2.78125l-2.8125 0l0 5.6875q0 2.0 -2.0 2.0l-2.375 0l-0.578125 -2.78125l2.203125 0zm-12.8125 -10.96875l2.1875 0l0 -3.78125l-2.1875 0l0 3.78125zm0 7.21875l2.1875 0l0 -4.4375l-2.1875 0l0 4.4375zm42.375 -14.4375l0 15.125q0 1.90625 -1.90625 1.90625l-1.765625 0l-0.296875 -2.78125l1.59375 0q0 0.21875 -0.21875 0.21875l0 -11.6875l-1.25 0l0 18.09375l-2.59375 0l0 -20.875l6.4375 0zm-14.3125 13.390625l1.40625 -0.203125l0 -13.6875l2.09375 0.484375q1.140625 -0.234375 3.453125 -1.453125l1.1875 1.796875q1.203125 1.921875 -0.8125 1.265625q-1.453125 0.421875 -3.328125 0.8125l0 10.234375l0.96875 -0.171875l0 -10.40625l2.03125 0q2.046875 0.25 0.5625 1.3125l0 10.0625q0 6.203125 -5.40625 7.625l-1.0 -2.734375q3.640625 -0.875 3.78125 -3.359375l-3.078125 0.953125q-1.078125 1.71875 -1.375 -0.140625l-0.484375 -2.390625zm-7.125 -10.984375l0 -2.78125l8.78125 0l0 2.78125l-1.125 0l0 18.84375l-2.59375 0l0 -4.078125l-3.96875 1.015625q-1.0625 1.703125 -1.359375 -0.15625l-0.484375 -2.375l1.78125 -0.296875l0 -12.953125l-1.03125 0zm3.625 2.1875l1.4375 0l0 -2.1875l-1.4375 0l0 2.1875zm0 5.0625l1.4375 0l0 -2.28125l-1.4375 0l0 2.28125zm0 5.234375l1.4375 -0.265625l0 -2.1875l-1.4375 0l0 2.453125zm41.53125 5.734375q-7.796875 -2.375 -10.21875 -7.59375q-1.40625 5.21875 -10.59375 7.875l-0.9375 -3.328125q8.609375 -2.203125 9.25 -7.578125l-7.625 0l0 -2.78125l7.875 0l0 -3.6875l-8.8125 0l0 -2.78125l21.34375 0l0 2.78125l-9.375 0l0 3.6875l8.34375 0l0 2.78125l-7.828125 0q2.078125 5.359375 9.765625 7.203125l-1.1875 3.421875zm17.234375 -0.3125l-0.28125 -3.0625l2.703125 0q0.734375 0 0.8125 -2.140625l0.4375 -8.390625l-2.796875 0q0.375 11.125 -10.703125 14.078125l-0.9375 -3.125q9.109375 -2.359375 8.765625 -10.953125l-4.046875 0l0 -2.78125l4.03125 0l0 -5.15625l2.3125 0q2.046875 0.25 0.5625 1.3125l0 3.84375l5.9375 0l-0.59375 11.6875q-0.203125 4.6875 -2.9375 4.6875l-3.265625 0zm-8.140625 -16.03125l0 7.1875l3.6875 -1.015625l0.28125 2.96875l-8.328125 2.5625q-0.171875 1.4375 -1.359375 0.25l-0.9375 -3.0625l3.78125 -0.96875l0 -7.921875l-3.09375 0l0 -2.78125l9.25 0l0 2.78125l-3.28125 0zm26.609375 -3.84375q2.078125 2.296875 3.765625 5.109375l-2.625 1.53125l-0.84375 -1.265625l-7.65625 0.765625q-0.171875 1.265625 -1.359375 0.078125l-0.75 -3.0l2.828125 0l1.90625 -5.15625l2.90625 0.703125q1.1875 1.1875 -0.21875 1.375l-1.671875 2.921875l2.5625 -0.15625l-1.1875 -1.59375l2.34375 -1.3125zm-4.578125 8.90625l0 0.59375l3.40625 0l0 -0.59375l-3.40625 0zm0 3.375l0 0.59375l3.40625 0l0 -0.59375l-3.40625 0zm6.28125 -6.15625l0 12.3125q0 2.0 -2.0 2.0l-2.015625 0l-0.4375 -2.78125l1.796875 0q0 0.21875 -0.21875 0.21875l0 -2.21875l-3.40625 0l0 4.875l-2.875 0l0 -14.40625l9.15625 0zm3.65625 3.65625q2.046875 0.25 0.5625 1.3125l0 1.46875l5.0625 -1.859375l1.203125 2.03125q0.25 1.765625 -1.125 0.984375l-5.140625 1.359375l0 2.234375q0 0.15625 0.0625 0.15625l3.75 0q0.21875 0 0.25 -0.234375l0.375 -2.109375l2.953125 0.5625l-0.46875 2.65625q-0.34375 1.90625 -2.078125 1.90625l-5.53125 0q-2.1875 0 -2.1875 -2.09375l0 -8.375l2.3125 0zm6.453125 -7.09375q0.25 1.78125 -1.109375 1.0l-4.78125 1.34375l0 1.875q0 0.15625 0.0625 0.15625l3.75 0q0.125 0 0.15625 -0.3125l0.25 -2.21875l2.9375 0.5625l-0.21875 2.515625q-0.234375 2.234375 -2.28125 2.234375l-5.34375 0q-2.1875 0 -2.1875 -2.09375l0 -8.84375l2.3125 0q2.046875 0.25 0.5625 1.3125l0 2.265625l4.46875 -1.921875l1.421875 2.125z" fill-rule="nonzero"/></g></svg>