<svg version="1.1" viewBox="0.0 0.0 960.0 540.0" fill="none" stroke="none" stroke-linecap="square" stroke-miterlimit="10" xmlns:xlink="http://www.w3.org/1999/xlink" xmlns="http://www.w3.org/2000/svg"><clipPath id="p.0"><path d="m0 0l960.0 0l0 540.0l-960.0 0l0 -540.0z" clip-rule="nonzero"/></clipPath><g clip-path="url(#p.0)"><path fill="#ffffff" d="m0 0l960.0 0l0 540.0l-960.0 0z" fill-rule="evenodd"/><path fill="#000000" fill-opacity="0.0" d="m449.16534 288.83597l61.66931 0" fill-rule="evenodd"/><path stroke="#4285f4" stroke-width="8.0" stroke-linejoin="round" stroke-linecap="butt" d="m449.16534 288.83597l61.66931 0" fill-rule="evenodd"/><path fill="#000000" fill-opacity="0.0" d="m32.72441 62.569553l894.55115 0l0 205.5433l-894.55115 0z" fill-rule="evenodd"/><path fill="#ff7575" d="m333.4488 227.58286q0 6.828125 -4.9375 10.90625q-4.9375 4.0625 -14.0 4.0625q-8.140625 0 -14.546875 -3.09375l0 -10.15625q3.671875 1.59375 7.59375 2.921875q3.921875 1.328125 7.8125 1.328125q4.03125 0 5.71875 -1.546875q1.703125 -1.546875 1.703125 -3.921875q0 -1.953125 -1.34375 -3.3125q-1.328125 -1.375 -3.5625 -2.5625q-2.21875 -1.1875 -5.109375 -2.546875q-1.796875 -0.875 -3.890625 -2.0625q-2.078125 -1.1875 -3.984375 -2.9375q-1.90625 -1.765625 -3.140625 -4.28125q-1.21875 -2.53125 -1.21875 -6.0625q0 -6.90625 4.671875 -10.75q4.6875 -3.859375 12.75 -3.859375q4.03125 0 7.65625 0.9375q3.640625 0.9375 7.609375 2.65625l-3.53125 8.5q-3.53125 -1.4375 -6.34375 -2.234375q-2.796875 -0.796875 -5.75 -0.796875q-3.09375 0 -4.75 1.453125q-1.65625 1.4375 -1.65625 3.734375q0 2.734375 2.4375 4.328125q2.453125 1.578125 7.28125 3.890625q3.953125 1.859375 6.71875 3.875q2.78125 2.015625 4.296875 4.765625q1.515625 2.734375 1.515625 6.765625z" fill-rule="nonzero"/><path fill="#000000" d="m377.65207 222.09848q0 9.796875 -5.15625 15.125q-5.140625 5.328125 -14.0 5.328125q-5.46875 0 -9.75 -2.375q-4.28125 -2.375 -6.734375 -6.9375q-2.453125 -4.578125 -2.453125 -11.140625q0 -9.78125 5.109375 -15.03125q5.125 -5.265625 14.046875 -5.265625q5.546875 0 9.796875 2.375q4.25 2.375 6.6875 6.875q2.453125 4.5 2.453125 11.046875zm-27.140625 0q0 5.84375 1.90625 8.828125q1.90625 2.984375 6.21875 2.984375q4.25 0 6.15625 -2.984375q1.921875 -2.984375 1.921875 -8.828125q0 -5.828125 -1.921875 -8.734375q-1.90625 -2.921875 -6.21875 -2.921875q-4.25 0 -6.15625 2.921875q-1.90625 2.90625 -1.90625 8.734375zm51.974274 20.453125q-8.78125 0 -13.578125 -4.859375q-4.78125 -4.859375 -4.78125 -15.296875q0 -7.203125 2.453125 -11.734375q2.453125 -4.546875 6.796875 -6.703125q4.359375 -2.15625 10.046875 -2.15625q4.03125 0 7.015625 0.796875q3.0 0.78125 5.234375 1.859375l-3.171875 8.28125q-2.515625 -1.0 -4.71875 -1.640625q-2.1875 -0.65625 -4.359375 -0.65625q-8.34375 0 -8.34375 11.875q0 5.90625 2.1875 8.71875q2.203125 2.8125 6.15625 2.8125q3.390625 0 5.984375 -0.90625q2.59375 -0.90625 5.03125 -2.484375l0 9.140625q-2.4375 1.59375 -5.140625 2.265625q-2.703125 0.6875 -6.8125 0.6875zm26.429901 -55.4375q2.375 0 4.09375 1.125q1.734375 1.109375 1.734375 4.125q0 2.953125 -1.734375 4.109375q-1.71875 1.15625 -4.09375 1.15625q-2.453125 0 -4.140625 -1.15625q-1.6875 -1.15625 -1.6875 -4.109375q0 -3.015625 1.6875 -4.125q1.6875 -1.125 4.140625 -1.125zm5.328125 15.40625l0 39.3125l-10.734375 0l0 -39.3125l10.734375 0zm27.366241 -0.796875q7.90625 0 12.125 3.421875q4.21875 3.421875 4.21875 10.484375l0 26.203125l-7.5 0l-2.078125 -5.328125l-0.296875 0q-2.515625 3.171875 -5.328125 4.609375q-2.796875 1.4375 -7.703125 1.4375q-5.25 0 -8.703125 -3.0625q-3.453125 -3.0625 -3.453125 -9.390625q0 -6.265625 4.390625 -9.25q4.390625 -2.984375 13.171875 -3.28125l6.84375 -0.21875l0 -1.71875q0 -3.09375 -1.625 -4.53125q-1.625 -1.453125 -4.5 -1.453125q-2.875 0 -5.625 0.828125q-2.734375 0.828125 -5.46875 2.0625l-3.515625 -7.28125q3.15625 -1.65625 7.0 -2.59375q3.859375 -0.9375 8.046875 -0.9375zm1.5 22.03125q-5.171875 0.15625 -7.1875 1.890625q-2.015625 1.71875 -2.015625 4.53125q0 2.4375 1.4375 3.484375q1.4375 1.046875 3.734375 1.046875q3.46875 0 5.84375 -2.046875q2.375 -2.0625 2.375 -5.796875l0 -3.25l-4.1875 0.140625zm36.581757 18.078125l-10.734375 0l0 -54.71875l10.734375 0l0 54.71875z" fill-rule="nonzero"/><path fill="#ff7575" d="m531.5893 241.83286l-10.875 0l0 -42.34375l-13.9687805 0l0 -9.0625l38.81253 0l0 9.0625l-13.96875 0l0 42.34375z" fill-rule="nonzero"/><path fill="#000000" d="m574.57416 201.8016q0.796875 0 1.875 0.078125q1.078125 0.0625 1.71875 0.203125l-0.78125 10.09375q-0.515625 -0.15625 -1.484375 -0.265625q-0.96875 -0.109375 -1.6875 -0.109375q-2.734375 0 -5.265625 0.984375q-2.515625 0.96875 -4.0625 3.125q-1.546875 2.15625 -1.546875 5.90625l0 20.015625l-10.734375 0l0 -39.3125l8.140625 0l1.59375 6.625l0.5 0q1.71875 -3.03125 4.734375 -5.1875q3.03125 -2.15625 7.0 -2.15625zm25.482422 0q8.140625 0 12.890625 4.640625q4.75 4.640625 4.75 13.21875l0 5.1875l-25.34375 0q0.140625 4.53125 2.703125 7.125q2.5625 2.59375 7.09375 2.59375q3.8125 0 6.90625 -0.75q3.09375 -0.765625 6.40625 -2.359375l0 8.28125q-2.875 1.453125 -6.078125 2.125q-3.203125 0.6875 -7.734375 0.6875q-5.90625 0 -10.453125 -2.1875q-4.53125 -2.203125 -7.125 -6.65625q-2.59375 -4.46875 -2.59375 -11.25q0 -6.90625 2.34375 -11.46875q2.34375 -4.578125 6.515625 -6.875q4.171875 -2.3125 9.71875 -2.3125zm0.078125 7.625q-3.09375 0 -5.15625 2.015625q-2.046875 2.015625 -2.40625 6.265625l15.046875 0q-0.078125 -3.59375 -1.875 -5.9375q-1.796875 -2.34375 -5.609375 -2.34375zm42.473877 -7.625q8.140625 0 12.890625 4.640625q4.75 4.640625 4.75 13.21875l0 5.1875l-25.34375 0q0.140625 4.53125 2.703125 7.125q2.5625 2.59375 7.09375 2.59375q3.8125 0 6.90625 -0.75q3.09375 -0.765625 6.40625 -2.359375l0 8.28125q-2.875 1.453125 -6.078125 2.125q-3.203125 0.6875 -7.734375 0.6875q-5.90625 0 -10.453125 -2.1875q-4.53125 -2.203125 -7.125 -6.65625q-2.59375 -4.46875 -2.59375 -11.25q0 -6.90625 2.34375 -11.46875q2.34375 -4.578125 6.515625 -6.875q4.171875 -2.3125 9.71875 -2.3125zm0.078125 7.625q-3.09375 0 -5.15625 2.015625q-2.046875 2.015625 -2.40625 6.265625l15.046875 0q-0.078125 -3.59375 -1.875 -5.9375q-1.796875 -2.34375 -5.609375 -2.34375z" fill-rule="nonzero"/><path fill="#000000" fill-opacity="0.0" d="m32.72441 332.37012l894.55115 0l0 110.4252l-894.55115 0z" fill-rule="evenodd"/><path fill="#666666" d="m383.83908 365.94427l0 -4.5625l10.171875 0l0 4.5625l-10.171875 0z" fill-rule="nonzero"/><path fill="#666666" d="m409.43753 345.35052l2.25 0l1.015625 -1.015625l3.828125 3.828125l-1.828125 1.3125q-1.921875 3.6875 -4.65625 7.078125q3.046875 0.96875 6.921875 3.609375l-2.640625 5.3125q-3.609375 -2.96875 -4.890625 -3.6875l0 15.765625l-5.0625 0l0 -15.296875q-1.578125 1.40625 -5.625 3.765625l-2.25 -4.9375q8.453125 -4.59375 12.046875 -10.828125l-10.28125 0l0 -4.90625l6.109375 0l0 -7.109375l4.09375 0q3.5625 0.46875 0.96875 2.328125l0 4.78125zm17.265625 -6.109375q3.796875 0.765625 0.9375 2.65625l0 7.4375l7.609375 0l0 5.390625l-7.609375 0l0 15.453125l9.109375 0l0 5.390625l-24.421875 0l0 -5.390625l9.765625 0l0 -15.453125l-7.125 0l0 -5.390625l7.125 0l0 -10.09375l4.609375 0zm47.171875 5.953125l4.5625 0l0 4.890625l-7.28125 0l0 3.71875l6.125 0l0 4.890625l-6.125 0l0 3.546875l8.28125 0l0 4.890625l-8.28125 0l0 10.09375l-5.0625 0l0 -10.09375l-7.265625 0l0 -4.890625l7.265625 0l0 -3.546875l-6.109375 0l0 -4.890625l6.109375 0l0 -3.71875l-6.609375 0l0 -4.890625l9.40625 0q1.234375 -2.734375 2.453125 -7.453125l4.578125 1.96875q2.0 2.0 -0.421875 2.359375l-1.625 3.125zm-13.46875 6.046875l-1.65625 0l0 7.953125l-4.5625 0l0 -1.328125l-3.34375 0q-0.234375 1.484375 -0.640625 2.546875l8.375 0l0 14.984375l-4.5625 0l0 -1.15625l-3.875 0l0 3.484375l-4.5625 0l0 -9.078125q-0.09375 0.15625 -3.984375 3.8125l-1.78125 -5.328125q5.5 -4.8125 6.265625 -9.265625l-4.140625 0l0 -4.40625l4.765625 0q0.203125 -1.1875 0.203125 -2.21875l-6.125 0l0 -4.390625l6.125 0l0 -2.21875l-4.96875 0l0 -4.40625l16.8125 0l0 6.625l1.65625 0l0 4.390625zm4.375 -13.25q2.921875 2.9375 4.484375 6.453125l-4.671875 2.6875q-1.515625 -3.25 -4.03125 -6.390625l4.21875 -2.75zm-10.765625 26.828125l-3.875 0l0 5.03125l3.875 0l0 -5.03125zm0.171875 -20.1875l-2.71875 0l0 2.21875l2.71875 0l0 -2.21875zm0 6.609375l-2.71875 0q0 1.1875 -0.171875 2.21875l2.890625 0l0 -2.21875zm27.578125 20.4375q1.5625 -4.46875 2.328125 -10.625l4.171875 0.921875q1.46875 1.46875 0.046875 2.328125q-0.625 4.78125 -2.109375 9.453125l-4.4375 -2.078125zm9.296875 -16.171875l2.046875 -0.140625l-1.140625 -2.4375l3.953125 -1.859375q2.125 3.375 2.65625 7.40625l-0.875 -19.078125l22.765656 0l0 34.296875q0 3.359375 -3.03125 3.359375l-3.828125 0l-1.09375 -4.390625l3.765625 0q0 0.375 -0.375 0.375l0 -11.375l-7.3437805 0l0 3.765625q0 0.109375 0.109375 0.109375l6.6719055 0l0 4.40625l-7.5000305 0q-3.84375 0 -3.84375 -3.859375l0 -4.421875l-1.734375 0l0 15.890625l-4.5625 0l0 -16.875l-2.078125 0.96875l-0.75 -1.90625l-1.703125 0.171875l0 17.46875l-4.5625 0l0 -16.953125l-3.765625 0.34375q-1.15625 3.46875 -2.34375 -0.125l-0.640625 -4.859375l3.375 0l2.125 -2.890625q-2.296875 -2.5625 -5.578125 -5.4375l3.203125 -3.484375l1.28125 1.28125l3.84375 -7.53125l3.671875 2.15625q2.515625 2.046875 -0.625 2.375l-3.578125 6.3125l0.40625 0.40625l4.046875 -6.453125l3.40625 2.34375q2.515625 1.984375 -0.671875 2.359375l-5.703125 8.28125zm18.296875 -4.6875l2.375 -7.46875l3.9531555 1.046875q4.015625 1.140625 -0.078125 2.390625l-1.78125 4.03125l2.078125 0l0 -7.015625l-13.6406555 0l0 7.015625l7.09375 0zm-12.78125 9.890625q1.875 4.328125 2.4375 9.578125l-4.5 1.84375q-0.59375 -5.6875 -2.0 -10.078125l4.0625 -1.34375zm9.71875 -17.171875q1.984375 2.40625 3.671875 6.640625l-4.296875 1.859375q-1.421875 -4.0625 -3.515625 -6.859375l4.140625 -1.640625zm-4.03125 13.734375l4.546875 0l0 -2.0625l-4.546875 0l0 2.0625zm13.6406555 0l0 -2.0625l-4.5312805 0l0 2.0625l4.5312805 0zm15.640625 -5.453125q1.3125 7.359375 2.09375 14.71875l-5.0625 0.5q-0.75 -6.9375 -2.234375 -14.21875l5.203125 -1.0zm16.953125 -13.25l4.078125 0q3.578125 0.46875 0.984375 2.328125l0 5.28125l10.09375 0l0 4.90625l-10.09375 0l0 5.53125l8.765625 0l0 19.9375l-5.0625 0l0 -1.984375l-9.65625 0l0 2.328125l-5.0625 0l0 -20.28125l5.953125 0l0 -18.046875zm-4.859375 12.671875l-18.640625 0l0 -4.890625l7.125 0l0 -7.453125l4.078125 0q3.578125 0.46875 0.984375 2.328125l0 5.125l6.453125 0l0 4.890625zm-15.09375 21.921875q-1.015625 3.375 -2.65625 -0.296875l-1.53125 -4.375l9.875 -1.203125q1.203125 -7.421875 1.578125 -16.6875l5.25 1.25q3.78125 1.703125 0.1875 2.6875q-0.609375 6.046875 -1.84375 12.140625l3.890625 -0.625l0 4.75l-14.75 2.359375zm19.0625 -3.484375l9.65625 0l0 -8.171875l-9.65625 0l0 8.171875z" fill-rule="nonzero"/><path fill="#666666" d="m565.98444 365.94427l0 -4.5625l10.171875 0l0 4.5625l-10.171875 0z" fill-rule="nonzero"/><path fill="#666666" d="m444.83594 405.73126l5.53125 0l0.28125 -0.296875l1.453125 1.15625q0.296875 0.390625 -0.28125 0.390625l-2.046875 6.59375q2.625 4.359375 1.9375 6.96875q-0.28125 1.265625 -1.15625 1.84375q-0.78125 0.578125 -2.71875 0.484375l-0.1875 -1.84375q2.03125 0.1875 2.125 -1.75q0.109375 -2.21875 -1.9375 -5.609375l1.65625 -6.109375l-2.71875 0l0 19.375l-1.9375 0l0 -21.203125zm15.109375 13.546875q2.140625 2.328125 6.59375 4.5625l-0.78125 1.9375q-3.09375 -1.265625 -5.90625 -4.359375l0 5.515625l-1.9375 0l0 -5.328125q-2.703125 3.109375 -6.78125 4.9375l-0.765625 -2.125q4.640625 -2.03125 7.359375 -5.140625l-4.5625 0l0 -8.609375l4.75 0l0 -1.65625l-5.8125 0l0 -1.828125l5.8125 0l0 -2.421875l1.84375 0q0.765625 0.09375 0.09375 0.578125l0 1.84375l6.390625 0l0 1.828125l-6.390625 0l0 1.65625l5.03125 0l0 8.609375l-4.9375 0zm-2.03125 -7.0625l-2.8125 0l0 1.9375l2.8125 0l0 -1.9375zm5.03125 0l-3.09375 0l0 1.9375l3.09375 0l0 -1.9375zm-7.84375 3.484375l0 2.03125l2.8125 0l0 -2.03125l-2.8125 0zm7.84375 0l-3.09375 0l0 2.03125l3.09375 0l0 -2.03125zm21.03125 6.484375l2.03125 0.484375l-0.203125 2.046875q-0.1875 1.828125 -2.125 1.828125l-7.171875 0q-1.828125 0 -1.828125 -1.9375l0 -6.1875l1.828125 0q0.78125 0.09375 0.109375 0.578125l0 4.9375q0 0.78125 0.671875 0.78125l5.609375 0q0.78125 0 0.875 -0.6875l0.203125 -1.84375zm2.796875 -3.578125q1.9375 2.125 4.171875 5.421875l-1.9375 1.359375q-2.03125 -3.578125 -3.875 -5.71875l1.640625 -1.0625zm-12.875 -8.421875l5.140625 0l0 -2.90625l-5.140625 0l0 2.90625zm12.203125 0l0 -2.90625l-5.140625 0l0 2.90625l5.140625 0zm0 6.78125l0 -0.78125l-12.203125 0l0 1.0625l-1.9375 0l0 -11.515625l16.078125 0l0 11.234375l-1.9375 0zm-5.140625 -2.328125l5.140625 0l0 -2.90625l-5.140625 0l0 2.90625zm-7.0625 0l5.140625 0l0 -2.90625l-5.140625 0l0 2.90625zm6.578125 7.453125q-0.953125 -2.21875 -2.3125 -3.96875l1.640625 -1.0625q1.640625 1.84375 2.609375 3.875l-1.9375 1.15625zm-7.25 -1.734375q-0.78125 3.09375 -2.328125 5.703125l-1.84375 -1.34375q1.453125 -2.234375 2.328125 -5.53125l1.84375 0.578125q0.765625 0.203125 0 0.59375zm30.703125 -0.390625q-1.65625 5.71875 -8.625 7.171875l-0.78125 -1.65625q6.78125 -1.0625 7.75 -6.78125l1.9375 0.578125q0.78125 0.484375 -0.28125 0.6875zm-6.984375 -7.75q0.78125 0.09375 0.109375 0.578125l0 3.296875l1.734375 0l0 -6.0l1.359375 0l0 -1.5625l-6.296875 0l0 -1.828125l6.296875 0l0 -1.84375l1.84375 0q0.765625 0.09375 0.09375 0.578125l0 1.265625l5.125 0l0 -1.84375l1.84375 0q0.78125 0.09375 0.09375 0.578125l0 1.265625l6.109375 0l0 1.828125l-6.109375 0l0 1.453125l-1.9375 0l0 -1.453125l-5.125 0l0 1.9375l-1.640625 0l0 1.84375l3.28125 0l0 1.546875l-3.28125 0l0 2.234375l4.0625 0l0 1.546875l-4.0625 0l0 3.96875q0 1.546875 -1.359375 1.546875l-1.265625 0l-0.390625 -1.546875l0.96875 0q0.390625 0 0.390625 -0.390625l0 -3.578125l-5.03125 0l0 -1.546875l1.640625 0l0 -3.875l1.546875 0zm5.71875 13.359375q2.90625 -0.578125 4.75 -1.828125l-1.9375 0l0 -9.890625l3.0 0l0.390625 -1.453125l-4.359375 0l0 -1.546875l11.046875 0l0 1.546875l-4.953125 0l-0.484375 1.453125l4.265625 0l0 9.890625l-2.125 0q1.546875 0.859375 3.78125 1.453125l-0.59375 1.734375q-2.515625 -0.671875 -4.84375 -2.125l0.96875 -1.0625l-3.875 0l1.265625 0.859375q0.875 0.59375 -0.390625 0.484375q-2.609375 1.5625 -4.84375 2.046875l-1.0625 -1.5625zm10.078125 -7.640625l-5.625 0l0 1.546875l5.625 0l0 -1.546875zm-5.625 -2.53125l0 1.359375l5.625 0l0 -1.359375l-5.625 0zm-9.6875 3.6875q0.6875 0.296875 -0.1875 0.484375q-0.671875 1.84375 -2.421875 3.390625l-1.265625 -1.0625q1.5625 -1.453125 2.421875 -3.390625l1.453125 0.578125zm15.3125 1.546875l-5.625 0l0 1.546875l5.625 0l0 -1.546875z" fill-rule="nonzero"/></g></svg>